<svg width="50" height="50" viewBox="0 0 50 50" fill="none" xmlns="http://www.w3.org/2000/svg">
<g clip-path="url(#clip0_1092_15294)">
<path fill-rule="evenodd" clip-rule="evenodd" d="M15.7966 5.43886C15.8305 5.14739 16.0847 4.92069 16.3898 4.92069H30.4746C30.8644 4.92069 31.1525 4.58063 31.0508 4.2082L30.2203 0.937211C30.1525 0.678123 29.9153 0.5 29.6441 0.5H12.1186C11.8136 0.5 11.5593 0.710509 11.5254 1.00198L8.32203 26.2631C8.28814 26.5545 8.0339 26.765 7.72881 26.765H0.59322C0.271186 26.765 0 27.0241 0 27.3318V41.7597C0 42.0674 0.271186 42.3265 0.59322 42.3265H7.94915C8.23729 42.3265 8.47458 42.5208 8.54237 42.7799L9.89831 49.0304C9.94915 49.2895 10.2034 49.4838 10.4915 49.4838H39.5254C39.8136 49.4838 40.0508 49.3057 40.1017 49.0304L41.5593 42.7637C41.6271 42.5046 41.8644 42.3103 42.1356 42.3103H49.3898C49.7119 42.3103 49.9831 42.0512 49.9831 41.7436V27.3156C49.9831 27.0079 49.7119 26.7488 49.3898 26.7488H42.339C42.0339 26.7488 41.7797 26.5383 41.7458 26.2469L39.5085 8.30502C39.4746 8.01355 39.2203 7.80304 38.9153 7.80304H19.7966C19.5085 7.80304 19.2542 8.01355 19.2034 8.28883L18.6949 11.236C18.6441 11.576 18.9153 11.8999 19.2881 11.8999H34.339C34.6441 11.8837 34.8983 12.0942 34.9322 12.3857L36.8475 27.8014L37.1695 31.04C37.2034 31.3315 37.4576 31.5582 37.7627 31.5582H44.4915C44.8136 31.5582 45.0847 31.8173 45.0847 32.1249V37.5981C45.0847 37.9058 44.8136 38.1649 44.4915 38.1649H38.7966C38.5424 38.1649 38.3051 38.3268 38.2373 38.5535L35.8136 45.5003H14.6102C14.339 45.5003 14.1017 45.3222 14.0339 45.0631L13.4915 43.0228C13.3898 42.6666 13.678 42.3103 14.0678 42.3103H30.6441C30.8983 42.3103 31.1356 42.1484 31.2034 41.9217L32.2542 38.9098C32.3898 38.5373 32.1017 38.1649 31.6949 38.1649H5.44068C5.11864 38.1649 4.84746 37.9058 4.84746 37.5981V32.1249C4.84746 31.8173 5.11864 31.5582 5.44068 31.5582H12.1525C12.4576 31.5582 12.7119 31.3477 12.7458 31.0562" fill="black"/>
</g>
<defs>
<clipPath id="clip0_1092_15294">
<rect width="50" height="49" fill="white" transform="translate(0 0.5)"/>
</clipPath>
</defs>
</svg>
