<svg width="30" height="30" viewBox="0 0 30 30" fill="none" xmlns="http://www.w3.org/2000/svg">
<path fill-rule="evenodd" clip-rule="evenodd" d="M26.9032 0.115067L26.2567 0.762019L25.2724 1.74693L24.3589 2.66103L20.293 6.72943C20.1998 6.82277 20.1998 6.97083 20.293 7.06095L20.8527 7.621C20.946 7.71434 21.094 7.71434 21.1841 7.621L22.905 5.89901L25.0858 3.71676C25.1791 3.62341 25.3303 3.62341 25.4204 3.71676L26.2792 4.57614C26.3725 4.66948 26.3725 4.82076 26.2792 4.91088C26.2792 4.91088 21.8177 9.37839 21.4575 9.73566C21.3127 9.8805 21.2001 9.83222 21.1004 9.73566L19.4792 8.11346C19.3506 7.98471 19.1318 8.04264 19.0868 8.21967L18.2055 11.5059C18.1572 11.6797 18.318 11.8407 18.4949 11.7956L22.0107 10.8525C22.1169 10.8236 22.2134 10.7689 22.2906 10.6916L27.3407 5.6383L28.2542 4.7242L29.2385 3.73929L29.8915 3.0859C30.0362 2.94106 30.0362 2.70931 29.8915 2.56447L27.4372 0.10863C27.2925 -0.03621 27.0544 -0.03621 26.9065 0.10863L26.9032 0.115067ZM28.1835 2.67713C28.2767 2.77047 28.2767 2.92175 28.1835 3.01509L27.5401 3.65882C27.4469 3.75216 27.2957 3.75216 27.2024 3.65882L26.3435 2.79944C26.2503 2.70609 26.2503 2.55482 26.3435 2.46148L26.9869 1.81774C27.0802 1.7244 27.2313 1.7244 27.3246 1.81774L28.1835 2.67713Z" fill="black"/>
<g clip-path="url(#clip0_264_6924)">
<path d="M18.3468 10.822H1.32501C1.13769 10.822 0.98584 10.9739 0.98584 11.1612V28.1831C0.98584 28.3704 1.13769 28.5222 1.32501 28.5222H18.3468C18.5342 28.5222 18.686 28.3704 18.686 28.1831V11.1612C18.686 10.9739 18.5342 10.822 18.3468 10.822Z" stroke="black" stroke-width="3" stroke-miterlimit="10"/>
</g>
<defs>
<clipPath id="clip0_264_6924">
<rect width="19.6721" height="19.6721" fill="white" transform="translate(0 9.83607)"/>
</clipPath>
</defs>
</svg>
