<svg width="30" height="30" viewBox="0 0 30 30" fill="none" xmlns="http://www.w3.org/2000/svg">
<g clip-path="url(#clip0_1257_30528)">
<path d="M6.52582 25.7306H2.22824C2.00072 25.7306 1.81654 25.5464 1.81654 25.3189V20.9888C1.81654 20.8263 1.68653 20.6963 1.52402 20.6963H0.292524C0.130011 20.6963 0 20.8263 0 20.9888V27.2727C0 27.4352 0.130011 27.5652 0.292524 27.5652H6.52582C6.70639 27.5652 6.85446 27.4171 6.85446 27.2366V26.0556C6.85446 25.8751 6.70639 25.727 6.52582 25.727V25.7306Z" fill="black"/>
<path d="M23.4741 25.7306H27.7753C28.0029 25.7306 28.187 25.5464 28.187 25.3189V20.9888C28.187 20.8263 28.3171 20.6963 28.4796 20.6963H29.7074C29.87 20.6963 30 20.8263 30 20.9888V26.0592V27.2402V27.2763C30 27.4388 29.87 27.5688 29.7074 27.5688H28.4796H23.4741C23.2936 27.5688 23.1455 27.4207 23.1455 27.2402V26.0592C23.1455 25.8787 23.2936 25.7306 23.4741 25.7306Z" fill="black"/>
<path d="M6.52582 3.8346H2.22824C2.00072 3.8346 1.81654 4.01878 1.81654 4.2463V8.57638C1.81654 8.73889 1.68653 8.86891 1.52402 8.86891H0.292524C0.130011 8.86891 0 8.73889 0 8.57638V2.29252C0 2.13001 0.130011 2 0.292524 2H6.52582C6.70639 2 6.85446 2.14807 6.85446 2.32864V3.50957C6.85446 3.69014 6.70639 3.83821 6.52582 3.83821V3.8346Z" fill="black"/>
<path d="M23.4743 3.83461H27.7755C28.0031 3.83461 28.1872 4.01879 28.1872 4.24631V8.57639C28.1872 8.7389 28.3172 8.86892 28.4798 8.86892H29.7076C29.8702 8.86892 30.0002 8.7389 30.0002 8.57639V3.50597V2.32504V2.28892C30.0002 2.12641 29.8702 1.9964 29.7076 1.9964H29.6715H28.4761H23.4707C23.2902 1.9964 23.1421 2.14447 23.1421 2.32504V3.50597C23.1421 3.68654 23.2902 3.83461 23.4707 3.83461H23.4743Z" fill="black"/>
<path d="M17.9344 13.5312C18.2395 13.5312 18.4869 13.2839 18.4869 12.9787C18.4869 12.6735 18.2395 12.4261 17.9344 12.4261C17.6292 12.4261 17.3818 12.6735 17.3818 12.9787C17.3818 13.2839 17.6292 13.5312 17.9344 13.5312Z" fill="black"/>
<path fill-rule="evenodd" clip-rule="evenodd" d="M24.2292 8.00579L23.5683 7.3449L22.9074 6.68402C22.8316 6.60818 22.7052 6.60818 22.6258 6.68402L22.2755 7.03432L21.7446 7.5652L21.2534 8.05635L18.534 10.7757C18.4907 10.8191 18.4618 10.8696 18.4474 10.9274L17.9381 12.8198C17.9273 12.8668 17.9381 12.9137 17.9706 12.9426C18.0032 12.9715 18.0465 12.9895 18.0934 12.9751L19.9858 12.4659C20.0436 12.4514 20.0942 12.4189 20.1375 12.3792L22.8569 9.65982L23.348 9.16867L23.8789 8.63779L24.2292 8.28748C24.3051 8.21164 24.3051 8.08524 24.2292 8.00579ZM22.6691 7.5977C22.7197 7.54714 22.7991 7.54714 22.8497 7.5977L23.0808 7.82883L23.3119 8.05996C23.3625 8.11052 23.3625 8.18997 23.3119 8.24053L22.9652 8.58723C22.9147 8.63779 22.8352 8.63779 22.7847 8.58723L22.5535 8.3561L22.3224 8.12497C22.2718 8.07441 22.2718 7.99496 22.3224 7.9444L22.6691 7.5977ZM19.4983 11.8664L19.2708 11.6389L19.0432 11.4114C18.9891 11.3572 18.9638 11.2958 19.0432 11.2199C19.2346 11.0285 21.6398 8.62334 21.6398 8.62334C21.6904 8.57278 21.7699 8.57278 21.8204 8.62334L22.0515 8.85447L22.2827 9.08561C22.3332 9.13616 22.3332 9.21562 22.2827 9.26618C22.2827 9.26618 19.8775 11.6714 19.6861 11.8628C19.6102 11.9386 19.5488 11.917 19.4947 11.8628L19.4983 11.8664Z" fill="black"/>
<path fill-rule="evenodd" clip-rule="evenodd" d="M18.4436 15.2828V12.7368C18.4436 12.7368 18.4364 12.7223 18.4328 12.7151C18.4436 12.6176 18.393 12.5128 18.2666 12.4767L12.5137 10.6638C12.297 10.5988 12.0622 10.5988 11.8419 10.6638L6.39594 12.3142C5.99507 12.4334 5.96618 12.9643 6.34538 13.1304L10.9644 15.1203C11.2894 15.2611 11.4952 15.5681 11.4952 15.9076V21.22C11.4952 21.4114 11.2966 21.5414 11.1124 21.4728L6.9232 19.8693C6.81486 19.8332 6.80403 19.826 6.80403 19.7284V15.8028V15.3406V14.1958C6.80403 14.1344 6.73902 14.0802 6.65596 14.0549L5.86145 13.7371C5.77838 13.7371 5.71338 13.8021 5.71338 13.878V20.4363C5.71338 20.5519 5.71338 20.5771 5.83256 20.6421L11.5422 22.827C11.9503 22.9896 12.4053 22.9896 12.8134 22.827L18.2883 20.5988C18.3967 20.5555 18.4472 20.5302 18.4472 20.4435V18.0347V15.2936L18.4436 15.2828ZM8.60973 12.6862L11.907 11.6894C12.0803 11.6353 12.2681 11.6353 12.4451 11.6894L15.7423 12.6826C15.8903 12.7259 15.9012 12.9245 15.7603 12.9859L12.4198 14.4233C12.2645 14.4883 12.0911 14.4883 11.9358 14.4233L8.59167 12.9823C8.45083 12.9209 8.46166 12.7259 8.60973 12.6826V12.6862ZM17.3819 19.8151C17.3819 19.9018 17.3421 19.9162 17.2229 19.9704L13.2685 21.433C13.0409 21.5161 12.7954 21.3572 12.7954 21.1225V15.8859C12.7954 15.5717 12.9868 15.2864 13.2865 15.1564L17.0171 13.5493C17.1868 13.4771 17.3819 13.5963 17.3819 13.7732V15.597V19.8079V19.8151Z" fill="black"/>
<path d="M13.3698 20.0824C12.8281 20.0824 12.3911 19.6418 12.3911 19.1037C12.3911 18.5656 12.8317 18.125 13.3698 18.125C13.9079 18.125 14.3485 18.5656 14.3485 19.1037C14.3485 19.6418 13.9079 20.0824 13.3698 20.0824ZM13.3698 18.5367C13.0592 18.5367 12.8028 18.7895 12.8028 19.1037C12.8028 19.4179 13.0556 19.6707 13.3698 19.6707C13.684 19.6707 13.9368 19.4179 13.9368 19.1037C13.9368 18.7895 13.684 18.5367 13.3698 18.5367Z" fill="black"/>
<path d="M16.2009 16.861C15.6591 16.861 15.2222 16.4204 15.2222 15.8823C15.2222 15.3442 15.6628 14.9036 16.2009 14.9036C16.739 14.9036 17.1796 15.3442 17.1796 15.8823C17.1796 16.4204 16.739 16.861 16.2009 16.861ZM16.2009 15.3153C15.8903 15.3153 15.6339 15.5681 15.6339 15.8823C15.6339 16.1965 15.8867 16.4493 16.2009 16.4493C16.5151 16.4493 16.7679 16.1965 16.7679 15.8823C16.7679 15.5681 16.5151 15.3153 16.2009 15.3153Z" fill="black"/>
<path d="M8.15106 18.4067C7.60934 18.4067 7.17236 17.9661 7.17236 17.428C7.17236 16.8899 7.61296 16.4493 8.15106 16.4493C8.68916 16.4493 9.12975 16.8899 9.12975 17.428C9.12975 17.9661 8.68916 18.4067 8.15106 18.4067ZM8.15106 16.861C7.84047 16.861 7.58406 17.1138 7.58406 17.428C7.58406 17.7422 7.83686 17.995 8.15106 17.995C8.46525 17.995 8.71805 17.7422 8.71805 17.428C8.71805 17.1138 8.46525 16.861 8.15106 16.861Z" fill="black"/>
</g>
<defs>
<clipPath id="clip0_1257_30528">
<rect width="30" height="25.5652" fill="white" transform="translate(0 2)"/>
</clipPath>
</defs>
</svg>
