<svg width="30" height="35" viewBox="0 0 30 35" fill="none" xmlns="http://www.w3.org/2000/svg">
<path d="M18.3576 17.9173C18.6915 17.9173 18.9623 17.6465 18.9623 17.3126C18.9623 16.9786 18.6915 16.7079 18.3576 16.7079C18.0236 16.7079 17.7529 16.9786 17.7529 17.3126C17.7529 17.6465 18.0236 17.9173 18.3576 17.9173Z" fill="black"/>
<path fill-rule="evenodd" clip-rule="evenodd" d="M25.2636 11.86L24.537 11.1333L23.8103 10.4066C23.7255 10.3218 23.5876 10.3218 23.5027 10.4066L23.1155 10.7938L22.532 11.3773L21.991 11.9183L19.0101 14.8992C18.9624 14.947 18.9305 15 18.9146 15.0636L18.3577 17.1429C18.3418 17.1959 18.3577 17.2436 18.3948 17.2755C18.432 17.3073 18.4797 17.3232 18.5274 17.3126L20.6066 16.7557C20.6703 16.7397 20.7286 16.7079 20.7711 16.6602L23.752 13.6793L24.293 13.1383L24.8764 12.5548L25.2636 12.1676C25.3485 12.0827 25.3485 11.9448 25.2636 11.86ZM23.5504 11.4144C23.6035 11.3614 23.6936 11.3614 23.7467 11.4144L24.0013 11.669L24.2559 11.9236C24.3089 11.9767 24.3089 12.0668 24.2559 12.1199L23.874 12.5018C23.8209 12.5548 23.7308 12.5548 23.6777 12.5018L23.4231 12.2472L23.1685 11.9926C23.1155 11.9395 23.1155 11.8494 23.1685 11.7963L23.5504 11.4144ZM20.0709 16.0926L19.8216 15.8434L19.5723 15.5941C19.514 15.5357 19.4875 15.4668 19.5723 15.3819C19.7845 15.1697 22.4206 12.5336 22.4206 12.5336C22.4737 12.4806 22.5639 12.4806 22.6169 12.5336L22.8715 12.7882L23.1261 13.0428C23.1791 13.0958 23.1791 13.186 23.1261 13.239C23.1261 13.239 20.49 15.8752 20.2778 16.0873C20.1929 16.1722 20.124 16.1457 20.0656 16.0873L20.0709 16.0926Z" fill="black"/>
<path fill-rule="evenodd" clip-rule="evenodd" d="M18.9144 19.8479V17.0527C18.9144 17.0527 18.9038 17.0368 18.9038 17.0262C18.9144 16.9201 18.8613 16.8034 18.7181 16.761L12.4062 14.7719C12.1675 14.6977 11.9076 14.6977 11.669 14.7719L5.69124 16.5806C5.251 16.7132 5.21917 17.2967 5.6382 17.477L10.7089 19.657C11.0643 19.8108 11.2924 20.1503 11.2924 20.5216V26.3508C11.2924 26.5576 11.0749 26.7061 10.868 26.6319L6.26938 24.8709C6.14739 24.8285 6.14209 24.8232 6.14209 24.7171V20.4102V19.9063V18.6492C6.14209 18.5803 6.06783 18.5219 5.97766 18.4954L5.10779 18.1453C5.01762 18.1453 4.94336 18.2143 4.94336 18.2991V25.4915C4.94336 25.6188 4.94336 25.6453 5.07066 25.7196L11.3348 28.117C11.7803 28.2974 12.2842 28.2974 12.7298 28.117L18.734 25.6718C18.8507 25.6241 18.9091 25.5923 18.9091 25.5021V22.8607V19.8533L18.9144 19.8479ZM8.12582 16.9996L11.7432 15.907C11.9342 15.8487 12.141 15.8487 12.332 15.907L15.9494 16.9996C16.1138 17.0474 16.1244 17.2648 15.9706 17.3285L12.3055 18.9091C12.1357 18.9834 11.9448 18.9834 11.775 18.9091L8.1046 17.3285C7.95079 17.2595 7.96139 17.0474 8.12582 16.9996ZM17.7528 24.8179C17.7528 24.9134 17.7103 24.9293 17.5777 24.9876L13.239 26.5948C12.9897 26.6849 12.7192 26.5099 12.7192 26.25V20.5057C12.7192 20.1609 12.9313 19.8479 13.2602 19.7047L17.355 17.9438C17.5406 17.8642 17.7528 17.9968 17.7528 18.1931V20.198V24.8179Z" fill="black"/>
<path d="M13.3507 25.1096C12.7566 25.1096 12.2739 24.6269 12.2739 24.0329C12.2739 23.4388 12.7566 22.9562 13.3507 22.9562C13.9447 22.9562 14.4274 23.4388 14.4274 24.0329C14.4274 24.6269 13.9447 25.1096 13.3507 25.1096ZM13.3507 23.4123C13.0059 23.4123 12.7301 23.6881 12.7301 24.0329C12.7301 24.3777 13.0059 24.6535 13.3507 24.6535C13.6954 24.6535 13.9712 24.3723 13.9712 24.0329C13.9712 23.6934 13.6901 23.4123 13.3507 23.4123Z" fill="black"/>
<path d="M16.4532 21.5771C15.8591 21.5771 15.3765 21.0944 15.3765 20.5004C15.3765 19.9063 15.8591 19.4236 16.4532 19.4236C17.0473 19.4236 17.5299 19.9063 17.5299 20.5004C17.5299 21.0944 17.0473 21.5771 16.4532 21.5771ZM16.4532 19.8798C16.1084 19.8798 15.8326 20.1556 15.8326 20.5004C15.8326 20.8451 16.1084 21.1209 16.4532 21.1209C16.798 21.1209 17.0738 20.8398 17.0738 20.5004C17.0738 20.1609 16.798 19.8798 16.4532 19.8798Z" fill="black"/>
<path d="M7.62214 23.2744C7.02808 23.2744 6.54541 22.7917 6.54541 22.1977C6.54541 21.6036 7.02808 21.1209 7.62214 21.1209C8.2162 21.1209 8.69888 21.6036 8.69888 22.1977C8.69888 22.7917 8.2162 23.2744 7.62214 23.2744ZM7.62214 21.5771C7.27738 21.5771 7.00156 21.8529 7.00156 22.1977C7.00156 22.5424 7.28268 22.8182 7.62214 22.8182C7.96161 22.8182 8.24272 22.5371 8.24272 22.1977C8.24272 21.8582 7.96691 21.5771 7.62214 21.5771Z" fill="black"/>
<path d="M25.1308 4.57214C24.9187 4.57214 24.7489 4.3971 24.7489 4.18494C24.7489 3.70226 24.7489 3.52723 24.7489 2.81648C24.7489 2.60431 24.5792 2.43458 24.367 2.43458H3.01273C2.70509 2.43458 2.4611 2.68388 2.4611 2.98621V31.3048C2.4611 31.6071 2.7104 31.8564 3.01273 31.8564H26.9873C27.2896 31.8564 27.5389 31.6071 27.5389 31.3048V7.27723C27.5389 7.05445 27.7192 6.86881 27.9473 6.86881H29.5969C29.8197 6.86881 30.0053 7.04915 30.0053 7.27723V33.8985C30.0053 34.116 29.8303 34.291 29.6128 34.291H0.392504C0.175035 34.291 0 34.116 0 33.8985V0.392503C0 0.175035 0.175035 0 0.392504 0H25.3589C25.64 0 25.9105 0.11669 26.1015 0.32355L28.9339 3.41054C28.9339 3.41054 29.4219 3.90912 29.2627 4.2698C29.1248 4.58274 28.6262 4.56683 28.6262 4.56683H25.1255L25.1308 4.57214Z" fill="#040000"/>
</svg>
