<svg width="30" height="30" viewBox="0 0 30 30" fill="none" xmlns="http://www.w3.org/2000/svg">
<path fill-rule="evenodd" clip-rule="evenodd" d="M29.7914 10.966L19.0341 0.208615C18.7347 -0.0952398 18.2132 -0.0634937 17.8776 0.272107L4.74382 13.4059C4.41729 13.7279 4.39008 14.2177 4.65765 14.5215L0.616832 18.5669C-0.353689 19.5374 -0.154143 21.3152 1.06581 22.5351L7.46491 28.9342C8.68486 30.1542 10.4626 30.3583 11.4332 29.3832L15.474 25.3424C15.7778 25.61 16.2676 25.5782 16.5896 25.2562L29.7234 12.1224C30.059 11.7868 30.0862 11.2698 29.7869 10.966H29.7914ZM10.5397 27.034C9.9411 27.6327 8.84359 27.5102 8.09076 26.7574L3.24268 21.9093C2.48985 21.1565 2.3674 20.059 2.96604 19.4603L6.27216 16.1542L13.8459 23.7279L10.5397 27.034ZM25.796 12.4989L16.966 21.3288C16.6304 21.6644 16.1134 21.6916 15.8096 21.3923L8.60776 14.1905C8.30391 13.8866 8.33565 13.3696 8.67126 13.034L17.5012 4.20408C17.8368 3.86848 18.3538 3.84127 18.6576 4.14059L25.8595 11.3424C26.1633 11.6463 26.1316 12.1633 25.796 12.4989Z" fill="black"/>
</svg>
