<svg width="51" height="91" viewBox="0 0 51 91" fill="none" xmlns="http://www.w3.org/2000/svg">
<path fill-rule="evenodd" clip-rule="evenodd" d="M22.2388 44.0086V47.4724H6.19033V42.1821C6.19033 32.5162 13.3794 24.6856 22.2388 24.6856V28.6594C20.8056 29.6548 19.8701 31.2895 19.8701 33.1386V39.5275C19.8701 41.3778 20.8044 43.0134 22.2388 44.0086ZM6.19033 63.4065V53.4993H44.8668V63.4065H44.8795C44.8795 75.0476 36.217 84.4912 25.5349 84.4912C14.8528 84.4912 6.19033 75.0539 6.19033 63.4065ZM22.2388 18.7412V4.08993C22.2388 1.82904 23.6995 0 25.4967 0C27.294 0 28.7547 1.83539 28.7547 4.08993V18.7412H29.5868L29.5931 18.7349C40.5038 18.7349 50.5 28.1023 50.5 39.6608V65.0387C50.5 78.966 38.6875 90.2514 25.5349 90.2514C12.3824 90.2514 0.5 80.2616 0.5 66.3343V40.9564C0.5 29.4042 10.5724 18.7412 21.4831 18.7412H22.2388ZM25.5033 42.4108C27.6753 42.4108 28.6025 40.6897 28.6025 38.5686V34.0976C28.6025 31.9764 27.6753 30.2553 25.5033 30.2553C23.3313 30.2553 22.2834 31.9764 22.2834 34.0976V38.5686C22.2834 40.6897 23.3313 42.4108 25.5033 42.4108Z" fill="black"/>
</svg>
