<svg width="51" height="91" viewBox="0 0 51 91" fill="none" xmlns="http://www.w3.org/2000/svg">
<path fill-rule="evenodd" clip-rule="evenodd" d="M31.1238 33.1386C31.1238 31.2893 30.1881 29.6545 28.7547 28.6591V24.6919H28.8183C37.684 24.6919 44.8668 32.5225 44.8668 42.1884V47.4724H28.7547V44.0089C30.1893 43.0137 31.1238 41.378 31.1238 39.5275V33.1386ZM22.2388 47.4724V44.0086C20.8044 43.0134 19.8701 41.3778 19.8701 39.5275V33.1386C19.8701 31.2895 20.8056 29.6548 22.2388 28.6594V24.6919C13.3794 24.692 6.19033 32.5225 6.19033 42.1884V47.4724H22.2388ZM6.19033 53.4993V63.4129C6.19033 75.0603 14.8528 84.4976 25.5349 84.4976C36.217 84.4976 44.8795 75.0539 44.8795 63.4129H44.8668V53.4993H6.19033ZM22.2388 4.08993V18.7412H21.4831C10.5724 18.7412 0.5 29.4042 0.5 40.9564V66.3343C0.5 80.2616 12.3824 90.2514 25.5349 90.2514C38.6875 90.2514 50.5 78.966 50.5 65.0387V39.6608C50.5 28.1023 40.5038 18.7349 29.5931 18.7349L29.5868 18.7412H28.7547V4.08993C28.7547 1.83539 27.294 0 25.4967 0C23.6995 0 22.2388 1.82904 22.2388 4.08993ZM28.5961 38.5686C28.5961 40.6897 27.6689 42.4108 25.4969 42.4108C23.325 42.4108 22.2771 40.6897 22.2771 38.5686V34.0976C22.2771 31.9764 23.325 30.2553 25.4969 30.2553C27.6689 30.2553 28.5961 31.9764 28.5961 34.0976V38.5686Z" fill="black"/>
</svg>
