<svg width="50" height="91" viewBox="0 0 50 91" fill="none" xmlns="http://www.w3.org/2000/svg">
<path fill-rule="evenodd" clip-rule="evenodd" d="M30.6238 33.1386C30.6238 31.2893 29.6881 29.6545 28.2547 28.6591V24.6856H28.3183C37.184 24.6856 44.3668 32.5161 44.3668 42.1821V47.4724H28.2547V44.0089C29.6893 43.0137 30.6238 41.378 30.6238 39.5275V33.1386ZM5.69033 53.4993V63.4065C5.69033 75.0539 14.3528 84.4912 25.0349 84.4912C35.717 84.4912 44.3795 75.0476 44.3795 63.4065H44.3668V53.4993H5.69033ZM21.7388 4.08993V18.7412H20.9831C10.0724 18.7412 0 29.4042 0 40.9564V66.3343C0 80.2616 11.8824 90.2514 25.0349 90.2514C38.1875 90.2514 50 78.966 50 65.0387V39.6608C50 28.1023 40.0038 18.7349 29.0931 18.7349L29.0868 18.7412H28.2547V4.08993C28.2547 1.83539 26.794 0 24.9967 0C23.1995 0 21.7388 1.82904 21.7388 4.08993ZM21.1294 29.1486C21.3203 28.9714 21.524 28.8071 21.7388 28.6571V28.6594C21.524 28.8086 21.3203 28.9721 21.1294 29.1486ZM28.1025 38.5686C28.1025 40.6897 27.1753 42.4108 25.0033 42.4108C22.8313 42.4108 21.7834 40.6897 21.7834 38.5686V34.0976C21.7834 31.9764 22.8313 30.2553 25.0033 30.2553C27.1753 30.2553 28.1025 31.9764 28.1025 34.0976V38.5686Z" fill="black"/>
</svg>
