<svg width="31" height="23" viewBox="0 0 31 23" fill="none" xmlns="http://www.w3.org/2000/svg">
<path fill-rule="evenodd" clip-rule="evenodd" d="M27.9032 0.115067L27.2567 0.762019L26.2724 1.74693L25.3589 2.66103L21.293 6.72943C21.1998 6.82277 21.1998 6.97083 21.293 7.06095L21.8527 7.621C21.946 7.71434 22.094 7.71434 22.1841 7.621L23.905 5.89901L26.0858 3.71676C26.1791 3.62341 26.3303 3.62341 26.4204 3.71676L27.2792 4.57614C27.3725 4.66948 27.3725 4.82076 27.2792 4.91088C27.2792 4.91088 22.8177 9.37839 22.4575 9.73566C22.3127 9.8805 22.2001 9.83222 22.1004 9.73566L20.4792 8.11346C20.3506 7.98471 20.1318 8.04264 20.0868 8.21967L19.2055 11.5059C19.1572 11.6797 19.318 11.8407 19.4949 11.7956L23.0107 10.8525C23.1169 10.8236 23.2134 10.7689 23.2906 10.6916L28.3407 5.6383L29.2542 4.7242L30.2385 3.73929L30.8915 3.0859C31.0362 2.94106 31.0362 2.70931 30.8915 2.56447L28.4372 0.10863C28.2925 -0.03621 28.0544 -0.03621 27.9065 0.10863L27.9032 0.115067ZM29.1835 2.67713C29.2767 2.77047 29.2767 2.92175 29.1835 3.01509L28.5401 3.65882C28.4469 3.75216 28.2957 3.75216 28.2024 3.65882L27.3435 2.79944C27.2503 2.70609 27.2503 2.55482 27.3435 2.46148L27.9869 1.81774C28.0802 1.7244 28.2313 1.7244 28.3246 1.81774L29.1835 2.67713Z" fill="black"/>
<path fill-rule="evenodd" clip-rule="evenodd" d="M10.8362 8.29395C6.41516 8.29395 3.39233 11.1468 3.39233 14.0425C3.39233 16.9382 6.41516 19.7911 10.8362 19.7911C15.2572 19.7911 18.28 16.9382 18.28 14.0425C18.28 11.1468 15.2572 8.29395 10.8362 8.29395ZM0.392334 14.0425C0.392334 8.93168 5.37808 5.29395 10.8362 5.29395C16.2942 5.29395 21.28 8.93168 21.28 14.0425C21.28 19.1534 16.2942 22.7911 10.8362 22.7911C5.37808 22.7911 0.392334 19.1534 0.392334 14.0425Z" fill="black"/>
</svg>
