<svg width="30" height="16" viewBox="0 0 30 16" fill="none" xmlns="http://www.w3.org/2000/svg">
<path d="M15.3866 15.8765C16.0863 15.8765 16.6535 15.3093 16.6535 14.6096C16.6535 13.9099 16.0863 13.3426 15.3866 13.3426C14.6869 13.3426 14.1196 13.9099 14.1196 14.6096C14.1196 15.3093 14.6869 15.8765 15.3866 15.8765Z" fill="black"/>
<path d="M9.01986 11.1076C9.71957 11.1076 10.2868 10.5403 10.2868 9.84063C10.2868 9.14092 9.71957 8.5737 9.01986 8.5737C8.32015 8.5737 7.75293 9.14092 7.75293 9.84063C7.75293 10.5403 8.32015 11.1076 9.01986 11.1076Z" fill="black"/>
<path d="M11.8368 15.8765C12.5365 15.8765 13.1037 15.3093 13.1037 14.6096C13.1037 13.9099 12.5365 13.3426 11.8368 13.3426C11.137 13.3426 10.5698 13.9099 10.5698 14.6096C10.5698 15.3093 11.137 15.8765 11.8368 15.8765Z" fill="black"/>
<path d="M7.6058 6.36654C8.30551 6.36654 8.87273 5.79931 8.87273 5.0996C8.87273 4.3999 8.30551 3.83267 7.6058 3.83267C6.90609 3.83267 6.33887 4.3999 6.33887 5.0996C6.33887 5.79931 6.90609 6.36654 7.6058 6.36654Z" fill="black"/>
<path d="M10.5658 8.36255C11.2655 8.36255 11.8327 7.79533 11.8327 7.09562C11.8327 6.39591 11.2655 5.82869 10.5658 5.82869C9.86605 5.82869 9.29883 6.39591 9.29883 7.09562C9.29883 7.79533 9.86605 8.36255 10.5658 8.36255Z" fill="black"/>
<path d="M10.287 5.27889C10.9867 5.27889 11.5539 4.71167 11.5539 4.01196C11.5539 3.31225 10.9867 2.74503 10.287 2.74503C9.58724 2.74503 9.02002 3.31225 9.02002 4.01196C9.02002 4.71167 9.58724 5.27889 10.287 5.27889Z" fill="black"/>
<path d="M1.82846 4.29084C2.52816 4.29084 3.09539 3.72361 3.09539 3.02391C3.09539 2.3242 2.52816 1.75697 1.82846 1.75697C1.12875 1.75697 0.561523 2.3242 0.561523 3.02391C0.561523 3.72361 1.12875 4.29084 1.82846 4.29084Z" fill="black"/>
<path d="M1.26693 7.81275C1.96664 7.81275 2.53386 7.24552 2.53386 6.54582C2.53386 5.84611 1.96664 5.27888 1.26693 5.27888C0.567225 5.27888 0 5.84611 0 6.54582C0 7.24552 0.567225 7.81275 1.26693 7.81275Z" fill="black"/>
<path d="M4.64144 8.36255C5.34115 8.36255 5.90838 7.79533 5.90838 7.09562C5.90838 6.39591 5.34115 5.82869 4.64144 5.82869C3.94174 5.82869 3.37451 6.39591 3.37451 7.09562C3.37451 7.79533 3.94174 8.36255 4.64144 8.36255Z" fill="black"/>
<path d="M8.87631 14.3984C9.57601 14.3984 10.1432 13.8312 10.1432 13.1315C10.1432 12.4318 9.57601 11.8645 8.87631 11.8645C8.1766 11.8645 7.60938 12.4318 7.60938 13.1315C7.60938 13.8312 8.1766 14.3984 8.87631 14.3984Z" fill="black"/>
<path fill-rule="evenodd" clip-rule="evenodd" d="M26.1674 0.135457L25.3666 0.936254L24.1475 2.15538L23.016 3.28685L17.9802 8.32271C17.8647 8.43824 17.8647 8.62151 17.9802 8.73307L18.6734 9.42629C18.789 9.54183 18.9722 9.54183 19.0838 9.42629L21.2152 7.29482L23.9164 4.59362C24.032 4.47809 24.2192 4.47809 24.3308 4.59362L25.3945 5.65737C25.5101 5.77291 25.5101 5.96016 25.3945 6.07171C25.3945 6.07171 19.8686 11.6016 19.4224 12.0438C19.2431 12.2231 19.1037 12.1633 18.9802 12.0438L16.9722 10.0359C16.8129 9.87649 16.5419 9.94821 16.4862 10.1673L15.3945 14.2351C15.3348 14.4502 15.534 14.6494 15.7531 14.5936L20.1077 13.4263C20.2392 13.3904 20.3587 13.3227 20.4543 13.2271L26.7093 6.97211L27.8407 5.84064L29.0599 4.62151L29.8686 3.81275C30.0479 3.63346 30.0479 3.34661 29.8686 3.16733L26.8288 0.127489C26.6495 -0.051794 26.3547 -0.051794 26.1714 0.127489L26.1674 0.135457ZM27.7531 3.30677C27.8686 3.42231 27.8686 3.60956 27.7531 3.7251L26.9563 4.52191C26.8407 4.63745 26.6535 4.63745 26.538 4.52191L25.4742 3.45817C25.3587 3.34263 25.3587 3.15538 25.4742 3.03984L26.271 2.24303C26.3866 2.12749 26.5738 2.12749 26.6894 2.24303L27.7531 3.30677Z" fill="black"/>
</svg>
