<svg width="32" height="24" viewBox="0 0 32 24" fill="none" xmlns="http://www.w3.org/2000/svg">
<path fill-rule="evenodd" clip-rule="evenodd" d="M3.5 12.7201V20.4841H18.3876V12.7201H3.5ZM0.5 11.4842C0.5 10.5099 1.28982 9.72009 2.2641 9.72009H19.6235C20.5978 9.72009 21.3876 10.5099 21.3876 11.4842V21.72C21.3876 22.6943 20.5978 23.4841 19.6235 23.4841H2.2641C1.28982 23.4841 0.5 22.6943 0.5 21.72V11.4842Z" fill="black"/>
<path fill-rule="evenodd" clip-rule="evenodd" d="M28.0109 0.115067L27.3644 0.762019L26.3801 1.74693L25.4665 2.66103L21.4007 6.72943C21.3074 6.82277 21.3074 6.97083 21.4007 7.06095L21.9604 7.621C22.0537 7.71434 22.2017 7.71434 22.2917 7.621L24.0126 5.89901L26.1935 3.71676C26.2868 3.62341 26.438 3.62341 26.528 3.71676L27.3869 4.57614C27.4802 4.66948 27.4802 4.82076 27.3869 4.91088C27.3869 4.91088 22.9254 9.37839 22.5651 9.73566C22.4204 9.8805 22.3078 9.83222 22.2081 9.73566L20.5869 8.11346C20.4582 7.98471 20.2395 8.04264 20.1945 8.21967L19.3131 11.5059C19.2649 11.6797 19.4257 11.8407 19.6026 11.7956L23.1184 10.8525C23.2245 10.8236 23.321 10.7689 23.3982 10.6916L28.4484 5.6383L29.3619 4.7242L30.3462 3.73929L30.9992 3.0859C31.1439 2.94106 31.1439 2.70931 30.9992 2.56447L28.5449 0.10863C28.4001 -0.03621 28.1621 -0.03621 28.0141 0.10863L28.0109 0.115067ZM29.2911 2.67713C29.3844 2.77047 29.3844 2.92175 29.2911 3.01509L28.6478 3.65882C28.5545 3.75216 28.4033 3.75216 28.3101 3.65882L27.4512 2.79944C27.3579 2.70609 27.3579 2.55482 27.4512 2.46148L28.0945 1.81774C28.1878 1.7244 28.339 1.7244 28.4323 1.81774L29.2911 2.67713Z" fill="black"/>
</svg>
