<svg width="31" height="27" viewBox="0 0 31 27" fill="none" xmlns="http://www.w3.org/2000/svg">
<path fill-rule="evenodd" clip-rule="evenodd" d="M11.0891 8.6842C6.89776 8.6842 3.5 12.082 3.5 16.2733C3.5 20.4647 6.89776 23.8624 11.0891 23.8624C15.2805 23.8624 18.6782 20.4647 18.6782 16.2733C18.6782 12.082 15.2805 8.6842 11.0891 8.6842ZM0.5 16.2733C0.5 10.4251 5.2409 5.6842 11.0891 5.6842C16.9373 5.6842 21.6782 10.4251 21.6782 16.2733C21.6782 22.1215 16.9373 26.8624 11.0891 26.8624C5.2409 26.8624 0.5 22.1215 0.5 16.2733Z" fill="black"/>
<path fill-rule="evenodd" clip-rule="evenodd" d="M27.7157 0.118968L27.0472 0.787851L26.0296 1.80615L25.0851 2.75124L20.8814 6.95754C20.785 7.05405 20.785 7.20713 20.8814 7.30031L21.4601 7.87934C21.5566 7.97584 21.7095 7.97584 21.8027 7.87934L23.5819 6.09898L25.8367 3.84275C25.9331 3.74624 26.0895 3.74624 26.1826 3.84275L27.0705 4.73126C27.167 4.82777 27.167 4.98417 27.0705 5.07735C27.0705 5.07735 22.4578 9.6963 22.0853 10.0657C21.9357 10.2154 21.8193 10.1655 21.7162 10.0657L20.04 8.38849C19.907 8.25538 19.6809 8.31528 19.6343 8.4983L18.7231 11.896C18.6732 12.0757 18.8395 12.2421 19.0224 12.1955L22.6574 11.2204C22.7671 11.1905 22.8669 11.1339 22.9467 11.054L28.168 5.82943L29.1125 4.88434L30.1301 3.86604L30.8053 3.1905C30.9549 3.04075 30.9549 2.80115 30.8053 2.6514L28.2678 0.112312C28.1181 -0.0374375 27.872 -0.0374375 27.719 0.112312L27.7157 0.118968ZM29.0393 2.76788C29.1358 2.86438 29.1358 3.02079 29.0393 3.11729L28.3742 3.78285C28.2777 3.87935 28.1214 3.87935 28.025 3.78285L27.137 2.89433C27.0406 2.79783 27.0406 2.64142 27.137 2.54492L27.8022 1.87936C27.8986 1.78286 28.0549 1.78286 28.1514 1.87936L29.0393 2.76788Z" fill="black"/>
</svg>
