<svg width="30" height="30" viewBox="0 0 30 30" fill="none" xmlns="http://www.w3.org/2000/svg">
<path fill-rule="evenodd" clip-rule="evenodd" d="M22.9924 1.41302L24.2022 0.20315C24.4791 -0.0677167 24.9245 -0.0677167 25.1954 0.20315L29.7941 4.78381C30.065 5.05467 30.065 5.48806 29.7941 5.75893L28.5722 6.98084L26.7303 8.82273L25.0208 10.5322L15.5706 19.9824C15.4261 20.1269 15.2456 20.2292 15.0469 20.2834L9.7908 21.6924C9.81536 21.8148 9.82825 21.9415 9.82825 22.0711C9.82825 23.1282 8.97127 23.9852 7.91413 23.9852C6.85698 23.9852 6 23.1282 6 22.0711C6 21.014 6.85698 20.157 7.91413 20.157C8.03879 20.157 8.16067 20.1689 8.27868 20.1917L9.57542 15.3596C9.65969 15.0286 10.069 14.9202 10.3098 15.161L13.3435 18.1947C13.5301 18.3753 13.7408 18.4656 14.0116 18.1947C14.6858 17.5266 23.0345 9.17185 23.0345 9.17185C23.209 9.00331 23.209 8.7204 23.0345 8.54585L21.4273 6.9387C21.2588 6.76414 20.9759 6.76414 20.8013 6.9387L16.7203 11.0198L13.5 14.2401C13.3314 14.4146 13.0546 14.4146 12.88 14.2401L11.8326 13.1927C11.6581 13.0242 11.6581 12.7473 11.8326 12.5727L19.441 4.96439L21.1505 3.25492L22.9924 1.41302ZM26.5979 5.6265C26.7725 5.45195 26.7725 5.16904 26.5979 4.99448L24.9908 3.38734C24.8162 3.21278 24.5333 3.21278 24.3587 3.38734L23.1549 4.59119C22.9803 4.76575 22.9803 5.04866 23.1549 5.22321L24.762 6.83036C24.9366 7.00492 25.2195 7.00492 25.394 6.83036L26.5979 5.6265Z" fill="black"/>
<path d="M10.83 24.915C10.83 25.9726 9.97263 26.83 8.915 26.83C7.85737 26.83 7 25.9726 7 24.915C7 23.8574 7.85737 23 8.915 23C9.97263 23 10.83 23.8574 10.83 24.915Z" fill="black" fill-opacity="0.3"/>
<path d="M8.83 19.915C8.83 20.9726 7.97263 21.83 6.915 21.83C5.85737 21.83 5 20.9726 5 19.915C5 18.8574 5.85737 18 6.915 18C7.97263 18 8.83 18.8574 8.83 19.915Z" fill="black" fill-opacity="0.3"/>
<path d="M7.83 24.915C7.83 25.9726 6.97263 26.83 5.915 26.83C4.85737 26.83 4 25.9726 4 24.915C4 23.8574 4.85737 23 5.915 23C6.97263 23 7.83 23.8574 7.83 24.915Z" fill="black" fill-opacity="0.3"/>
<path d="M15.83 20.915C15.83 21.9726 14.9726 22.83 13.915 22.83C12.8574 22.83 12 21.9726 12 20.915C12 19.8574 12.8574 19 13.915 19C14.9726 19 15.83 19.8574 15.83 20.915Z" fill="black" fill-opacity="0.3"/>
<path d="M15.83 23.915C15.83 24.9726 14.9726 25.83 13.915 25.83C12.8574 25.83 12 24.9726 12 23.915C12 22.8574 12.8574 22 13.915 22C14.9726 22 15.83 22.8574 15.83 23.915Z" fill="black" fill-opacity="0.3"/>
<path d="M13.83 25.915C13.83 26.9726 12.9726 27.83 11.915 27.83C10.8574 27.83 10 26.9726 10 25.915C10 24.8574 10.8574 24 11.915 24C12.9726 24 13.83 24.8574 13.83 25.915Z" fill="black" fill-opacity="0.3"/>
<path d="M11.83 27.915C11.83 28.9726 10.9726 29.83 9.915 29.83C8.85737 29.83 8 28.9726 8 27.915C8 26.8574 8.85737 26 9.915 26C10.9726 26 11.83 26.8574 11.83 27.915Z" fill="black" fill-opacity="0.3"/>
<path d="M8.83 27.915C8.83 28.9726 7.97263 29.83 6.915 29.83C5.85737 29.83 5 28.9726 5 27.915C5 26.8574 5.85737 26 6.915 26C7.97263 26 8.83 26.8574 8.83 27.915Z" fill="black" fill-opacity="0.3"/>
<path d="M5.83 26.915C5.83 27.9726 4.97263 28.83 3.915 28.83C2.85737 28.83 2 27.9726 2 26.915C2 25.8574 2.85737 25 3.915 25C4.97263 25 5.83 25.8574 5.83 26.915Z" fill="black" fill-opacity="0.3"/>
<path d="M4.83 23.915C4.83 24.9726 3.97263 25.83 2.915 25.83C1.85737 25.83 1 24.9726 1 23.915C1 22.8574 1.85737 22 2.915 22C3.97263 22 4.83 22.8574 4.83 23.915Z" fill="black" fill-opacity="0.3"/>
<path d="M3.83 20.915C3.83 21.9726 2.97263 22.83 1.915 22.83C0.857375 22.83 0 21.9726 0 20.915C0 19.8574 0.857375 19 1.915 19C2.97263 19 3.83 19.8574 3.83 20.915Z" fill="black" fill-opacity="0.3"/>
<path d="M5.83 18.915C5.83 19.9726 4.97263 20.83 3.915 20.83C2.85737 20.83 2 19.9726 2 18.915C2 17.8574 2.85737 17 3.915 17C4.97263 17 5.83 17.8574 5.83 18.915Z" fill="black" fill-opacity="0.3"/>
<path d="M7.83 16.915C7.83 17.9726 6.97263 18.83 5.915 18.83C4.85737 18.83 4 17.9726 4 16.915C4 15.8574 4.85737 15 5.915 15C6.97263 15 7.83 15.8574 7.83 16.915Z" fill="black" fill-opacity="0.3"/>
<path d="M10.83 16.915C10.83 17.9726 9.97263 18.83 8.915 18.83C7.85737 18.83 7 17.9726 7 16.915C7 15.8574 7.85737 15 8.915 15C9.97263 15 10.83 15.8574 10.83 16.915Z" fill="black" fill-opacity="0.3"/>
<path d="M6.83 21.915C6.83 22.9726 5.97263 23.83 4.915 23.83C3.85737 23.83 3 22.9726 3 21.915C3 20.8574 3.85737 20 4.915 20C5.97263 20 6.83 20.8574 6.83 21.915Z" fill="black" fill-opacity="0.3"/>
<path d="M12.83 22.915C12.83 23.9726 11.9726 24.83 10.915 24.83C9.85737 24.83 9 23.9726 9 22.915C9 21.8574 9.85737 21 10.915 21C11.9726 21 12.83 21.8574 12.83 22.915Z" fill="black" fill-opacity="0.3"/>
</svg>
