<svg width="30" height="18" viewBox="0 0 30 18" fill="none" xmlns="http://www.w3.org/2000/svg">
<path fill-rule="evenodd" clip-rule="evenodd" d="M25.2599 0.15L24.3499 1.06L22.9699 2.44L21.6899 3.72L15.9899 9.42C15.8599 9.55 15.8599 9.76 15.9899 9.89L16.7699 10.67C16.8999 10.8 17.1099 10.8 17.2399 10.67L19.6499 8.26L22.6999 5.21C22.8299 5.08 23.0399 5.08 23.1699 5.21L24.3699 6.41C24.4999 6.54 24.4999 6.75 24.3699 6.88C24.3699 6.88 18.1199 13.13 17.6199 13.64C17.4199 13.84 17.2599 13.78 17.1199 13.64L14.8499 11.37C14.6699 11.19 14.3599 11.27 14.2999 11.52L13.0699 16.12C12.9999 16.37 13.2299 16.59 13.4699 16.52L18.3999 15.2C18.5499 15.16 18.6799 15.08 18.7899 14.97L25.8599 7.9L27.1399 6.62L28.5199 5.24L29.4299 4.33C29.6299 4.13 29.6299 3.8 29.4299 3.6L25.9999 0.15C25.7999 -0.05 25.4599 -0.05 25.2599 0.15ZM27.0499 3.74C27.1799 3.87 27.1799 4.08 27.0499 4.21L26.1499 5.11C26.0199 5.24 25.8099 5.24 25.6799 5.11L24.4799 3.91C24.3499 3.78 24.3499 3.57 24.4799 3.44L25.3799 2.54C25.5099 2.41 25.7199 2.41 25.8499 2.54L27.0499 3.74Z" fill="black"/>
<path opacity="0.5" fill-rule="evenodd" clip-rule="evenodd" d="M0 2.03006V16.4901C0 17.3001 0.66 17.9601 1.47 17.9601H15.9C16.71 17.9601 17.37 17.3001 17.37 16.4901V2.03006C17.37 1.22006 16.71 0.560059 15.9 0.560059H1.47C0.66 0.560059 0 1.22006 0 2.03006Z" fill="black"/>
</svg>
