<svg width="30" height="17" viewBox="0 0 30 17" fill="none" xmlns="http://www.w3.org/2000/svg">
<path d="M14.742 16.5838C15.4725 16.5838 16.0648 15.9916 16.0648 15.261C16.0648 14.5305 15.4725 13.9382 14.742 13.9382C14.0114 13.9382 13.4192 14.5305 13.4192 15.261C13.4192 15.9916 14.0114 16.5838 14.742 16.5838Z" fill="black"/>
<path opacity="0.3" d="M9.26786 11.1056C9.99842 11.1056 10.5907 10.5133 10.5907 9.78276C10.5907 9.0522 9.99842 8.45996 9.26786 8.45996C8.5373 8.45996 7.94507 9.0522 7.94507 9.78276C7.94507 10.5133 8.5373 11.1056 9.26786 11.1056Z" fill="black"/>
<path opacity="0.3" d="M11.9134 13.7552C12.6439 13.7552 13.2362 13.163 13.2362 12.4324C13.2362 11.7019 12.6439 11.1096 11.9134 11.1096C11.1828 11.1096 10.5906 11.7019 10.5906 12.4324C10.5906 13.163 11.1828 13.7552 11.9134 13.7552Z" fill="black"/>
<path opacity="0.3" d="M3.97245 5.81014C4.70301 5.81014 5.29525 5.21791 5.29525 4.48735C5.29525 3.75679 4.70301 3.16455 3.97245 3.16455C3.24189 3.16455 2.64966 3.75679 2.64966 4.48735C2.64966 5.21791 3.24189 5.81014 3.97245 5.81014Z" fill="black"/>
<path d="M1.3228 3.16451C2.05335 3.16451 2.64559 2.57228 2.64559 1.84172C2.64559 1.11116 2.05335 0.518921 1.3228 0.518921C0.592236 0.518921 0 1.11116 0 1.84172C0 2.57228 0.592236 3.16451 1.3228 3.16451Z" fill="black"/>
<path opacity="0.3" d="M6.61821 8.45992C7.34877 8.45992 7.941 7.86769 7.941 7.13713C7.941 6.40657 7.34877 5.81433 6.61821 5.81433C5.88765 5.81433 5.29541 6.40657 5.29541 7.13713C5.29541 7.86769 5.88765 8.45992 6.61821 8.45992Z" fill="black"/>
<path fill-rule="evenodd" clip-rule="evenodd" d="M25.9984 0.14871L25.1623 0.984817L23.8894 2.2577L22.708 3.43906L17.4501 8.69696C17.3295 8.8176 17.3295 9.00894 17.4501 9.12542L18.1739 9.84921C18.2946 9.96984 18.4859 9.96984 18.6024 9.84921L20.8278 7.62375L23.6481 4.80345C23.7688 4.68282 23.9643 4.68282 24.0808 4.80345L25.1914 5.9141C25.312 6.03473 25.312 6.23024 25.1914 6.34671C25.1914 6.34671 19.4219 12.1204 18.956 12.5822C18.7688 12.7693 18.6232 12.7069 18.4942 12.5822L16.3977 10.4856C16.2313 10.3193 15.9485 10.3941 15.8902 10.6229L14.7505 14.87C14.6881 15.0946 14.8961 15.3026 15.1249 15.2444L19.6714 14.0256C19.8087 13.9881 19.9335 13.9174 20.0333 13.8176L26.5641 7.28681L27.7455 6.10545L29.0184 4.83257L29.8628 3.98814C30.05 3.80096 30.05 3.50146 29.8628 3.31427L26.6889 0.140391C26.5017 -0.046797 26.1939 -0.046797 26.0026 0.140391L25.9984 0.14871ZM27.654 3.45986C27.7746 3.58049 27.7746 3.776 27.654 3.89663L26.822 4.72858C26.7014 4.84921 26.5059 4.84921 26.3853 4.72858L25.2746 3.61793C25.154 3.4973 25.154 3.30179 25.2746 3.18116L26.1065 2.34921C26.2272 2.22858 26.4227 2.22858 26.5433 2.34921L27.654 3.45986Z" fill="black"/>
<path d="M1.32275 1.8418C9.74205 10.5273 14.7421 15.2611 14.7421 15.2611" stroke="black" stroke-miterlimit="10"/>
</svg>
