<svg width="32" height="31" viewBox="0 0 32 31" fill="none" xmlns="http://www.w3.org/2000/svg">
<path fill-rule="evenodd" clip-rule="evenodd" d="M3.5 12.322V27.0222H18.2002V12.322H3.5ZM0.5 11.1612C0.5 10.1454 1.32343 9.32202 2.33917 9.32202H19.361C20.3768 9.32202 21.2002 10.1454 21.2002 11.1612V28.183C21.2002 29.1988 20.3768 30.0222 19.361 30.0222H2.33917C1.32342 30.0222 0.5 29.1988 0.5 28.183V11.1612Z" fill="black"/>
<path fill-rule="evenodd" clip-rule="evenodd" d="M27.9172 0.115067L27.2706 0.762019L26.2863 1.74693L25.3728 2.66103L21.307 6.72943C21.2137 6.82277 21.2137 6.97083 21.307 7.06095L21.8667 7.621C21.9599 7.71434 22.1079 7.71434 22.198 7.621L23.9189 5.89901L26.0998 3.71676C26.193 3.62341 26.3442 3.62341 26.4343 3.71676L27.2931 4.57614C27.3864 4.66948 27.3864 4.82076 27.2931 4.91088C27.2931 4.91088 22.8317 9.37839 22.4714 9.73566C22.3266 9.8805 22.2141 9.83222 22.1143 9.73566L20.4932 8.11346C20.3645 7.98471 20.1458 8.04264 20.1007 8.21967L19.2194 11.5059C19.1711 11.6797 19.332 11.8407 19.5089 11.7956L23.0246 10.8525C23.1308 10.8236 23.2273 10.7689 23.3045 10.6916L28.3546 5.6383L29.2681 4.7242L30.2524 3.73929L30.9054 3.0859C31.0502 2.94106 31.0502 2.70931 30.9054 2.56447L28.4511 0.10863C28.3064 -0.03621 28.0683 -0.03621 27.9204 0.10863L27.9172 0.115067ZM29.1974 2.67713C29.2907 2.77047 29.2907 2.92175 29.1974 3.01509L28.554 3.65882C28.4608 3.75216 28.3096 3.75216 28.2163 3.65882L27.3575 2.79944C27.2642 2.70609 27.2642 2.55482 27.3575 2.46148L28.0008 1.81774C28.0941 1.7244 28.2453 1.7244 28.3385 1.81774L29.1974 2.67713Z" fill="black"/>
</svg>
