<svg width="32" height="21" viewBox="0 0 32 21" fill="none" xmlns="http://www.w3.org/2000/svg">
<path fill-rule="evenodd" clip-rule="evenodd" d="M5.55873 2.30591H16.1406L21.4274 11.4689L16.1406 20.6319H5.55873L0.267822 11.4689L5.55873 2.30591ZM7.29067 5.30591L3.73203 11.4689L7.29067 17.6319H14.4079L17.9638 11.4689L14.4079 5.30591H7.29067Z" fill="black"/>
<path fill-rule="evenodd" clip-rule="evenodd" d="M27.915 0.115067L27.2684 0.762019L26.2841 1.74693L25.3706 2.66103L21.3048 6.72943C21.2115 6.82277 21.2115 6.97083 21.3048 7.06095L21.8645 7.621C21.9577 7.71434 22.1057 7.71434 22.1958 7.621L23.9167 5.89901L26.0976 3.71676C26.1908 3.62341 26.342 3.62341 26.4321 3.71676L27.2909 4.57614C27.3842 4.66948 27.3842 4.82076 27.2909 4.91088C27.2909 4.91088 22.8295 9.37839 22.4692 9.73566C22.3244 9.8805 22.2119 9.83222 22.1121 9.73566L20.491 8.11346C20.3623 7.98471 20.1436 8.04264 20.0985 8.21967L19.2172 11.5059C19.1689 11.6797 19.3298 11.8407 19.5067 11.7956L23.0225 10.8525C23.1286 10.8236 23.2251 10.7689 23.3023 10.6916L28.3524 5.6383L29.2659 4.7242L30.2502 3.73929L30.9032 3.0859C31.048 2.94106 31.048 2.70931 30.9032 2.56447L28.4489 0.10863C28.3042 -0.03621 28.0661 -0.03621 27.9182 0.10863L27.915 0.115067ZM29.1952 2.67713C29.2885 2.77047 29.2885 2.92175 29.1952 3.01509L28.5519 3.65882C28.4586 3.75216 28.3074 3.75216 28.2141 3.65882L27.3553 2.79944C27.262 2.70609 27.262 2.55482 27.3553 2.46148L27.9986 1.81774C28.0919 1.7244 28.2431 1.7244 28.3363 1.81774L29.1952 2.67713Z" fill="black"/>
</svg>
