<svg width="31" height="18" viewBox="0 0 31 18" fill="none" xmlns="http://www.w3.org/2000/svg">
<path opacity="0.3" d="M2.68892 14.6929C3.40082 14.6929 3.97793 14.1158 3.97793 13.4039C3.97793 12.692 3.40082 12.1149 2.68892 12.1149C1.97701 12.1149 1.3999 12.692 1.3999 13.4039C1.3999 14.1158 1.97701 14.6929 2.68892 14.6929Z" fill="black"/>
<path fill-rule="evenodd" clip-rule="evenodd" d="M26.3979 0.144913L25.5831 0.959667L24.3428 2.20004L23.1916 3.35124L18.0679 8.47487C17.9504 8.59242 17.9504 8.77888 18.0679 8.89238L18.7732 9.59769C18.8908 9.71524 19.0772 9.71524 19.1907 9.59769L21.3594 7.42906L24.1077 4.68079C24.2252 4.56323 24.4157 4.56323 24.5292 4.68079L25.6115 5.76307C25.7291 5.88062 25.7291 6.07114 25.6115 6.18464C25.6115 6.18464 19.9893 11.8109 19.5353 12.2608C19.3529 12.4432 19.211 12.3824 19.0854 12.2608L17.0424 10.2179C16.8802 10.0557 16.6046 10.1287 16.5479 10.3516L15.6746 13.6056C15.5951 13.5903 15.5131 13.5823 15.4292 13.5823C14.7172 13.5823 14.1401 14.1594 14.1401 14.8713C14.1401 14.9697 14.1512 15.0655 14.172 15.1576C10.3047 17.0861 5.62214 16.1504 3.00447 12.9993L3.00421 12.999C0.744072 10.2826 0.359609 6.33318 2.03334 3.04383C2.1354 3.06983 2.24233 3.08365 2.35249 3.08365C3.06439 3.08365 3.64151 2.50653 3.64151 1.79463C3.64151 1.08273 3.06439 0.505615 2.35249 0.505615C1.64059 0.505615 1.06348 1.08273 1.06348 1.79463C1.06348 2.02371 1.12323 2.23883 1.22801 2.42525C-0.715054 6.08437 -0.332483 10.552 2.23526 13.6383C5.19819 17.205 10.4755 18.2011 14.7664 15.9771C14.9601 16.0934 15.1868 16.1603 15.4292 16.1603C16.1411 16.1603 16.7182 15.5832 16.7182 14.8713C16.7182 14.784 16.7095 14.6987 16.6929 14.6163L20.2325 13.6674C20.3663 13.6309 20.4879 13.562 20.5852 13.4647L26.9492 7.10073L28.1004 5.94953L29.3407 4.70916L30.1636 3.8863C30.346 3.70389 30.346 3.41204 30.1636 3.22963L27.0708 0.136806C26.8884 -0.0456019 26.5884 -0.0456019 26.4019 0.136806L26.3979 0.144913ZM28.0112 3.3715C28.1287 3.48906 28.1287 3.67957 28.0112 3.79712L27.2005 4.60782C27.0829 4.72537 26.8924 4.72537 26.7749 4.60782L25.6926 3.52554C25.575 3.40798 25.575 3.21747 25.6926 3.09992L26.5033 2.28922C26.6208 2.17167 26.8113 2.17167 26.9289 2.28922L28.0112 3.3715Z" fill="black"/>
</svg>
