<svg width="30" height="30" viewBox="0 0 30 30" fill="none" xmlns="http://www.w3.org/2000/svg">
<path d="M4.99996 30C6.10453 30 7 29.1045 7 28C7 26.8955 6.10453 26 4.99996 26C3.89539 26 3 26.8955 3 28C3 29.1045 3.89539 30 4.99996 30Z" fill="black"/>
<path fill-rule="evenodd" clip-rule="evenodd" d="M21.974 5.21441L20.7103 6.47829L18.7922 8.39665L17.0133 10.1759L9.08518 18.1053C8.90463 18.2858 8.90463 18.5754 9.08518 18.756L10.1758 19.8468C10.3564 20.0274 10.646 20.0274 10.8264 19.8468L14.1775 16.4953L18.4274 12.2448C18.6079 12.0642 18.9013 12.0642 19.0818 12.2448L20.7555 13.9186C20.936 14.0992 20.936 14.3925 20.7555 14.5731C20.7555 14.5731 12.0563 23.2774 11.3568 23.9733C11.0747 24.2553 10.8528 24.1651 10.661 23.9733L7.49805 20.8098C7.24976 20.5615 6.82101 20.6744 6.73077 21.0167L5.01575 27.4226C4.92552 27.7649 5.23763 28.077 5.57615 27.983L12.4324 26.1474C12.6393 26.091 12.8273 25.9819 12.9777 25.8314L22.8202 15.9875L24.5992 14.2083L26.5172 12.2899L27.7884 11.0185C28.0705 10.7363 28.0705 10.2812 27.7884 10.0028L23.0045 5.21441C22.7187 4.92853 22.2561 4.92853 21.974 5.21441ZM24.4713 10.206C24.6518 10.3865 24.6518 10.6799 24.4713 10.8605L23.2188 12.1131C23.0384 12.2936 22.745 12.2936 22.5645 12.1131L20.8908 10.4392C20.7103 10.2587 20.7103 9.96527 20.8908 9.78469L22.1432 8.53206C22.3238 8.35157 22.6171 8.35157 22.7977 8.53206L24.4713 10.206Z" fill="black"/>
</svg>
