<svg width="30" height="25" viewBox="0 0 30 25" fill="none" xmlns="http://www.w3.org/2000/svg">
<g clip-path="url(#clip0_264_6883)">
<path d="M21.9006 22.1994H8.09921C7.73376 22.1994 7.4375 22.4957 7.4375 22.8611V24.1165C7.4375 24.4819 7.73376 24.7782 8.09921 24.7782H21.9006C22.266 24.7782 22.5623 24.4819 22.5623 24.1165V22.8611C22.5623 22.4957 22.266 22.1994 21.9006 22.1994Z" fill="black"/>
<path fill-rule="evenodd" clip-rule="evenodd" d="M0 1.20998V19.0913C0 19.7605 0.540711 20.3012 1.20998 20.3012H28.79C29.4593 20.3012 30 19.7605 30 19.0913V1.20998C30 0.540711 29.4593 0 28.79 0H1.20998C0.540711 0 0 0.540711 0 1.20998ZM26.9372 17.7641H3.06277C2.61281 17.7641 2.24981 17.4011 2.24981 16.9511V3.35014C2.24981 2.90018 2.61281 2.53718 3.06277 2.53718H26.9372C27.3872 2.53718 27.7502 2.90018 27.7502 3.35014V16.9511C27.7502 17.4011 27.3872 17.7641 26.9372 17.7641Z" fill="black"/>
<path fill-rule="evenodd" clip-rule="evenodd" d="M20.1955 7.87623V5.72473C20.1955 5.72473 20.1879 5.71338 20.1879 5.70582C20.1955 5.62264 20.1539 5.53567 20.048 5.50542L15.193 3.97403C15.0077 3.91732 14.8111 3.91732 14.6258 3.97403L10.0279 5.36551C9.69134 5.46761 9.66487 5.91379 9.98627 6.05369L13.8847 7.73254C14.1569 7.84976 14.3346 8.11066 14.3346 8.39803V12.8825C14.3346 13.0451 14.1683 13.1548 14.0095 13.0981L10.4703 11.7444C10.3795 11.7141 10.372 11.7066 10.372 11.6234V8.31106V7.9216V6.9574C10.372 6.90446 10.3152 6.85909 10.2472 6.8364L9.5779 6.56793C9.50984 6.56793 9.45312 6.62087 9.45312 6.68893V12.2246C9.45312 12.3229 9.45313 12.3418 9.55144 12.3985L14.3687 14.2438C14.7128 14.3799 15.0984 14.3799 15.4425 14.2438L20.0632 12.3607C20.1539 12.3267 20.1955 12.3002 20.1955 12.2284V10.1941V7.88001V7.87623ZM11.8958 5.68692L14.6787 4.84749C14.8262 4.80212 14.985 4.80212 15.1325 4.84749L17.9154 5.68692C18.0402 5.72473 18.0516 5.8911 17.9306 5.94026L15.1098 7.15402C14.9812 7.21074 14.83 7.21074 14.7014 7.15402L11.8807 5.94026C11.7634 5.88732 11.771 5.72473 11.8958 5.68692ZM19.3031 11.699C19.3031 11.7709 19.2691 11.786 19.1708 11.8314L15.832 13.0678C15.6392 13.1397 15.4312 13.0035 15.4312 12.8031V8.38291C15.4312 8.11822 15.5938 7.87623 15.8471 7.76657L18.9969 6.40912C19.1405 6.34862 19.3031 6.44694 19.3031 6.59818V8.13713V11.6915V11.699Z" fill="black"/>
<path fill-rule="evenodd" clip-rule="evenodd" d="M15.0832 13.3627C12.0734 13.3401 9.53998 13.8656 8.95767 14.5689L8.6703 14.4858C8.64005 14.4782 8.5909 14.4706 8.54552 14.4706H7.56619C7.42629 14.4706 7.34688 14.5122 7.43763 14.5387L9.50594 15.1588C9.57022 15.1815 9.70257 15.1815 9.76685 15.1588L11.8352 14.5387C11.9259 14.5122 11.8465 14.4706 11.7066 14.4706H10.6743C10.6252 14.4706 10.576 14.4782 10.5458 14.4858L10.1109 14.6219C10.5987 14.0509 12.6897 13.6236 15.1551 13.6539C17.6695 13.6841 19.7 14.1984 19.7984 14.8261C19.9042 15.5218 17.6733 16.0965 14.9017 16.0965C13.238 16.0965 11.7709 15.8886 10.8861 15.5747C10.8596 15.5634 10.8105 15.5596 10.7613 15.5596H9.74038C9.62316 15.5596 9.55132 15.5899 9.60804 15.6163C10.6479 16.0776 12.6254 16.3915 14.8979 16.3915C18.3313 16.3915 21.0953 15.6806 20.9592 14.8147C20.8344 14.0245 18.2443 13.3854 15.0794 13.3627H15.0832Z" fill="black"/>
</g>
<defs>
<clipPath id="clip0_264_6883">
<rect width="30" height="24.7782" fill="white"/>
</clipPath>
</defs>
</svg>
