<svg width="80" height="80" viewBox="0 0 80 80" fill="none" xmlns="http://www.w3.org/2000/svg">
<circle cx="40" cy="40" r="40" transform="matrix(-1 0 0 1 80 0)" fill="white"/>
<g clip-path="url(#clip0_868_45825)">
<path fill-rule="evenodd" clip-rule="evenodd" d="M18.3881 65.0349C18.3881 62.0457 20.7743 59.6108 23.7038 59.6108C26.6332 59.6108 29 62.0457 29 65.0349C29 68.0241 26.6138 70.459 23.6844 70.459C20.7549 70.459 18.3687 68.0241 18.3687 65.0349H18.3881ZM21.0265 65.0349C21.0265 63.5304 22.2099 62.3229 23.6844 62.3229C25.1588 62.3229 26.3422 63.5304 26.3422 65.0349C26.3422 66.5394 25.1588 67.7469 23.6844 67.7469C22.2099 67.7469 21.0265 66.5394 21.0265 65.0349Z" fill="black"/>
<path d="M17.612 58.6805L16.4285 59.512C15.5749 60.1058 14.3333 59.9475 13.7319 59.1161C9.71609 53.6326 7.34927 47.0208 7.34927 39.9141C7.34927 32.8074 9.69669 26.2549 13.6737 20.7913C14.2945 19.9401 15.5361 19.7223 16.4285 20.336L17.612 21.1674C18.4074 21.7217 18.6208 22.7511 18.0776 23.5231C14.6631 28.2147 12.6455 33.8565 12.6455 39.9339C12.6455 46.0112 14.6631 51.6332 18.0776 56.3446C18.6402 57.1167 18.4074 58.1461 17.612 58.7003V58.6805Z" fill="black" stroke="black" stroke-width="2" stroke-miterlimit="10"/>
</g>
<defs>
<clipPath id="clip0_868_45825">
<rect width="23.61" height="52.459" fill="white" transform="matrix(-1 0 0 1 29 18)"/>
</clipPath>
</defs>
</svg>
