<svg width="28" height="31" viewBox="0 0 28 31" fill="none" xmlns="http://www.w3.org/2000/svg">
<g clip-path="url(#clip0_153_1011)">
<path fill-rule="evenodd" clip-rule="evenodd" d="M27.5043 18.9215L18.4512 18.9215C17.9298 18.9215 17.5097 19.3395 17.5097 19.8583L17.5097 30.6816C17.5097 30.8546 17.3793 30.9843 17.2055 30.9843L14.1057 30.9843C13.9319 30.9843 13.8015 30.8546 13.8015 30.6816L13.8015 18.9215L13.8015 16.313C13.8015 15.7797 14.2361 15.3618 14.7576 15.3618L20.5226 15.3618C20.9137 15.3618 21.1309 14.9294 20.9137 14.6123L14.8734 6.25345C14.6851 5.99403 14.294 5.99403 14.1057 6.25345L7.51506 15.3618L5.12504 18.7342C5.03813 18.8639 4.89328 18.9359 4.73395 18.9359L1.46034 18.9359C1.06925 18.9359 0.851973 18.5036 1.06925 18.1865L14.0912 0.200447C14.2795 -0.0589682 14.6706 -0.0589682 14.8589 0.200446L27.8809 18.1865C28.1127 18.5036 27.8809 18.9359 27.4898 18.9359L27.5043 18.9215Z" fill="#F40000"/>
</g>
<defs>
<clipPath id="clip0_153_1011">
<rect width="30.9784" height="26.9902" fill="white" transform="translate(0.983154 30.9843) rotate(-90)"/>
</clipPath>
</defs>
</svg>
