<?xml version="1.0" encoding="UTF-8"?>
<svg id="_圖層_2" data-name="圖層 2" xmlns="http://www.w3.org/2000/svg" viewBox="0 0 110.1 123.66">
  <defs>
    <style>
      .cls-1 {
        fill: #977564;
      }

      .cls-1, .cls-2, .cls-3, .cls-4, .cls-5, .cls-6, .cls-7 {
        stroke-width: 0px;
      }

      .cls-8 {
        fill: none;
        stroke: #000;
        stroke-linecap: round;
        stroke-linejoin: round;
      }

      .cls-3 {
        fill: #1b1413;
      }

      .cls-4 {
        fill: #e4d8ce;
        opacity: .8;
      }

      .cls-5 {
        fill: #fff;
      }

      .cls-6 {
        fill: #241b18;
      }

      .cls-7 {
        fill: #55352a;
      }
    </style>
  </defs>
  <g id="_選擇焊接加工方式" data-name="選擇焊接加工方式">
    <g>
      <polygon class="cls-3" points="54.42 123.66 54.42 108.81 110.1 78.93 110.1 93.52 54.42 123.66"/>
      <polygon class="cls-1" points=".27 71.03 .27 86.8 54.42 123.66 54.42 108.81 .27 71.03"/>
      <path class="cls-2" d="m67.52,27.46h-7.42c-.62,0-1.13.51-1.13,1.13v3.59c0,.62.51,1.13,1.13,1.13h.94v4.89c0,.53.43.96.96.96h.27v11.48c0,.63.71,5.46,1.34,5.46h.47c.63,0,1.29-4.83,1.29-5.46v-11.48h.27c.53,0,.96-.43.96-.96v-4.89h.94c.62,0,1.13-.51,1.13-1.13v-3.59c0-.62-.51-1.13-1.13-1.13Z"/>
      <path class="cls-2" d="m70.88,0h-14.13c-2.17,0-3.93.98-3.93,2.19v13.03c0,1.19,1.71,2.16,3.84,2.19v7.21c0,.74,1.08,1.35,2.41,1.35h9.47c1.33,0,2.41-.6,2.41-1.35v-7.21c2.13-.03,3.84-.99,3.84-2.19V2.19c0-1.21-1.76-2.19-3.93-2.19Z"/>
      <polygon class="cls-7" points="64.9 53.77 13.65 80.36 54.42 108.81 110.1 78.93 64.9 53.77"/>
      <polygon class="cls-7" points="10.06 77.86 .27 70.98 50.43 45 61.41 51.66 10.06 77.86"/>
      <polygon class="cls-6" points="62.36 55.09 61.41 51.66 10.06 77.86 11.12 81.64 62.36 55.09"/>
      <path class="cls-4" d="m.21,71.78l8.97,6.41c.21.15.49.11.66-.08l.16-.18c.19-.22.15-.56-.08-.73l-8.93-6.49c-.22-.16-.52-.11-.68.1l-.2.26c-.17.22-.13.54.1.71Z"/>
      <path class="cls-4" d="m13.61,81.14l40.1,27.81c.21.15.49.11.66-.08l.16-.18c.19-.22.15-.56-.08-.73l-40.06-27.89c-.22-.16-.52-.11-.68.1l-.2.26c-.17.22-.13.54.1.71Z"/>
      <line class="cls-8" x1="27.35" y1="56.96" x2="82.26" y2="93.87"/>
      <line class="cls-8" x1="78.97" y1="62.06" x2="26.33" y2="89.38"/>
      <line class="cls-8" x1="95.19" y1="71.03" x2="40.83" y2="98.84"/>
      <g>
        <circle class="cls-5" cx="82.25" cy="94.88" r="5.5"/>
        <path class="cls-2" d="m82.25,90.38h0c1.96,0,3.73,1.32,4.3,3.2.34,1.15.22,2.36-.35,3.42-.57,1.06-1.51,1.83-2.66,2.17-.42.13-.86.19-1.29.19-1.96,0-3.73-1.32-4.3-3.2-.34-1.15-.22-2.36.35-3.42.57-1.06,1.51-1.83,2.66-2.17.42-.13.86-.19,1.29-.19m0-1.01c-.52,0-1.06.08-1.58.23-2.91.87-4.56,3.94-3.68,6.85.72,2.38,2.9,3.92,5.26,3.92.52,0,1.06-.08,1.58-.23,2.91-.87,4.56-3.94,3.68-6.85-.72-2.38-2.9-3.92-5.26-3.92h0Z"/>
      </g>
      <g>
        <circle class="cls-5" cx="27.5" cy="56.56" r="5.5"/>
        <path class="cls-2" d="m27.5,52.07h0c1.96,0,3.73,1.32,4.3,3.2.34,1.15.22,2.36-.35,3.42-.57,1.06-1.51,1.83-2.66,2.17-.42.13-.86.19-1.29.19-1.96,0-3.73-1.32-4.3-3.2-.34-1.15-.22-2.36.35-3.42.57-1.06,1.51-1.83,2.66-2.17.42-.13.86-.19,1.29-.19m0-1.01c-.52,0-1.06.08-1.58.23-2.91.87-4.56,3.94-3.68,6.85.72,2.38,2.9,3.92,5.26,3.92.52,0,1.06-.08,1.58-.23,2.91-.87,4.56-3.94,3.68-6.85-.72-2.38-2.9-3.92-5.26-3.92h0Z"/>
      </g>
      <g>
        <circle class="cls-5" cx="26.98" cy="89.61" r="5.5"/>
        <path class="cls-2" d="m26.98,85.12h0c1.96,0,3.73,1.32,4.3,3.2.34,1.15.22,2.36-.35,3.42-.57,1.06-1.51,1.83-2.66,2.17-.42.13-.86.19-1.29.19-1.96,0-3.73-1.32-4.3-3.2-.34-1.15-.22-2.36.35-3.42.57-1.06,1.51-1.83,2.66-2.17.42-.13.86-.19,1.29-.19m0-1.01c-.88,0-1.78.21-2.64.67-1.93,1.03-3.07,3.21-2.83,5.38.33,2.96,2.78,4.95,5.47,4.95.88,0,1.78-.21,2.64-.67,1.93-1.03,3.07-3.2,2.83-5.38-.32-2.96-2.78-4.95-5.47-4.95h0Z"/>
      </g>
      <g>
        <circle class="cls-5" cx="40.45" cy="99.37" r="5.5"/>
        <path class="cls-2" d="m40.46,94.88h0c1.96,0,3.73,1.32,4.3,3.2.34,1.15.22,2.36-.35,3.42-.57,1.06-1.51,1.83-2.66,2.17-.42.13-.86.19-1.29.19-1.96,0-3.73-1.32-4.3-3.2-.34-1.15-.22-2.36.35-3.42.57-1.06,1.51-1.83,2.66-2.17.42-.13.86-.19,1.29-.19m0-1.01c-.52,0-1.06.08-1.58.23-2.91.87-4.56,3.94-3.68,6.85.72,2.38,2.9,3.92,5.26,3.92.52,0,1.06-.08,1.58-.23,2.91-.87,4.56-3.94,3.68-6.85-.72-2.38-2.9-3.92-5.26-3.92h0Z"/>
      </g>
      <g>
        <circle class="cls-5" cx="95.19" cy="70.66" r="5.5"/>
        <path class="cls-2" d="m95.2,66.17h0c1.96,0,3.73,1.32,4.3,3.2.34,1.15.22,2.36-.35,3.42-.57,1.06-1.51,1.83-2.66,2.17-.42.13-.86.19-1.29.19-1.96,0-3.73-1.32-4.3-3.2-.34-1.15-.22-2.36.35-3.42.57-1.06,1.51-1.83,2.66-2.17.42-.13.86-.19,1.29-.19m0-1.01c-.52,0-1.06.08-1.58.23-2.91.87-4.56,3.94-3.68,6.85.72,2.38,2.9,3.92,5.26,3.92.52,0,1.06-.08,1.58-.23,2.91-.87,4.56-3.94,3.68-6.85-.72-2.38-2.9-3.92-5.26-3.92h0Z"/>
      </g>
      <g>
        <circle class="cls-5" cx="78.63" cy="61.77" r="5.5"/>
        <path class="cls-2" d="m78.63,57.28h0c1.96,0,3.73,1.32,4.3,3.2.34,1.15.22,2.36-.35,3.42-.57,1.06-1.51,1.83-2.66,2.17-.42.13-.86.19-1.29.19-1.96,0-3.73-1.32-4.3-3.2-.34-1.15-.22-2.36.35-3.42.57-1.06,1.51-1.83,2.66-2.17.42-.13.86-.19,1.29-.19m0-1.01c-.52,0-1.06.08-1.58.23-2.91.87-4.56,3.94-3.68,6.85.72,2.38,2.9,3.92,5.26,3.92.52,0,1.06-.08,1.58-.23,2.91-.87,4.56-3.94,3.68-6.85-.72-2.38-2.9-3.92-5.26-3.92h0Z"/>
      </g>
      <g>
        <polygon class="cls-5" points="83.79 96.04 83.71 106 86.85 103.97 91.15 110.59 92.61 109.64 94.08 108.69 89.78 102.07 92.91 100.03 83.79 96.04"/>
        <path class="cls-2" d="m91.15,111.09s-.07,0-.1-.01c-.13-.03-.25-.11-.32-.22l-4.03-6.2-2.71,1.76c-.16.1-.35.11-.52.02-.16-.09-.26-.26-.26-.45l.07-9.96c0-.17.09-.33.23-.42.14-.09.32-.11.48-.04l9.13,3.98c.17.07.29.24.3.42.02.18-.07.36-.23.46l-2.71,1.76,4.03,6.2c.07.11.1.25.07.38-.03.13-.11.24-.22.32l-2.93,1.9c-.08.05-.18.08-.27.08Zm-4.3-7.63s.07,0,.1.01c.13.03.25.11.32.22l4.03,6.2,2.08-1.35-4.03-6.2c-.15-.23-.09-.55.15-.7l2.35-1.53-7.57-3.3-.06,8.26,2.35-1.53c.08-.05.18-.08.27-.08Z"/>
      </g>
    </g>
  </g>
</svg>