<?xml version="1.0" encoding="UTF-8"?>
<svg id="_圖層_2" data-name="圖層 2" xmlns="http://www.w3.org/2000/svg" viewBox="0 0 89.97 118.18">
  <defs>
    <style>
      .cls-1 {
        fill: none;
        stroke: #000;
      }

      .cls-1, .cls-2 {
        stroke-miterlimit: 10;
      }

      .cls-3, .cls-4, .cls-5, .cls-6 {
        stroke-width: 0px;
      }

      .cls-2 {
        fill: #868788;
        fill-rule: evenodd;
        stroke: #b7b7b7;
      }

      .cls-4 {
        fill: #fff;
      }

      .cls-5 {
        fill: #a0a0a0;
      }

      .cls-6 {
        fill: #282828;
      }
    </style>
  </defs>
  <g id="_選擇焊接加工方式" data-name="選擇焊接加工方式">
    <g>
      <g>
        <path class="cls-2" d="m.5,63.54v50.7c0,1.9,1.54,3.43,3.43,3.43h78.2c1.9,0,3.43-1.54,3.43-3.43v-50.7c0-1.9-1.54-3.43-3.43-3.43H3.93c-1.9,0-3.43,1.54-3.43,3.43Zm76.38,46.94H9.19c-1.27,0-2.31-1.03-2.31-2.31v-38.56c0-1.27,1.03-2.31,2.31-2.31h67.69c1.27,0,2.31,1.03,2.31,2.31v38.56c0,1.27-1.03,2.31-2.31,2.31Z"/>
        <rect class="cls-1" x="6.88" y="67.3" width="72.31" height="43.18" rx="2.31" ry="2.31"/>
        <rect class="cls-5" x="23.1" y="66.76" width="51.5" height="1.1"/>
        <g>
          <path class="cls-6" d="m16.59,58.88c-.23-.03-.4.15-.42.41-.02.29-.04.59-.05.88q-.03.66-.65.87c-.4.14-.6.44-.66.84-.05.4.11.74.46.95.68.42,1.5-.08,1.51-.94,0-.33.12-.44.42-.46.3-.02.5.13.65.53.1.26-.13.32-.26.41-.35.22-.56.53-.63.92-.08.46.2.98.61,1.2.4.21.91.16,1.28-.14.4-.32.53-.76.39-1.25-.04-.15-.17-.28-.16-.46.18.03.22.17.28.29.39.79.77,1.58,1.15,2.37.07.15.19.24.36.24.17,0,.28-.09.35-.25.06-.16-.01-.31-.07-.44-.38-.79-.76-1.58-1.16-2.37-.23-.46-.62-.7-1.12-.7-.22,0-.3-.1-.38-.26-.29-.61-.77-.9-1.44-.82-.16.02-.19-.03-.18-.17.03-.39.05-.79.07-1.18.01-.25-.08-.42-.34-.45Zm-.6,3.14c-.07.14-.15.22-.29.14-.11-.06-.17-.17-.11-.28.08-.15.26-.19.39-.14.11.04.03.2,0,.28Zm2.46,1.6c-.12.22-.32.28-.53.16-.21-.12-.27-.34-.17-.54.09-.17.46-.4.55-.34.14.09.24.56.15.72Z"/>
          <path class="cls-6" d="m29.14,66.43c-.55-.22-.64-.51-.46-1.02.06-.18-.09-.35-.29-.39-.19-.04-.34.04-.41.23-.04.1-.07.21-.09.32-.03.19-.09.28-.33.26-.62-.06-1.12.28-1.36.86-.11.27-.23.54-.34.81-.13.3-.25.6-.38.9-.14.34-.08.53.18.63.24.1.41,0,.55-.32.24-.58.49-1.16.73-1.74.04-.1.08-.21.18-.28.14-.1.3-.16.45-.09.17.08,0,.21,0,.32,0,.08-.02.16-.02.24,0,.47.35.86.86.96.37.07.8-.16.97-.53.21-.43.15-1.01-.23-1.17Zm-.72.91c-.19-.08-.1-.24-.08-.36.03-.16.13-.05.21-.04.13.07.22.17.15.31-.05.11-.17.14-.28.09Z"/>
        </g>
        <g>
          <g>
            <circle class="cls-4" cx="6.88" cy="79.13" r="5.5"/>
            <path class="cls-3" d="m6.88,74.64h0c1.96,0,3.73,1.32,4.3,3.2.34,1.15.22,2.36-.35,3.42-.57,1.06-1.51,1.83-2.66,2.17-.42.13-.86.19-1.29.19-1.96,0-3.73-1.32-4.3-3.2-.34-1.15-.22-2.36.35-3.42.57-1.06,1.51-1.83,2.66-2.17.42-.13.86-.19,1.29-.19m0-1.01c-.52,0-1.06.08-1.58.23-2.91.87-4.56,3.94-3.68,6.85.72,2.38,2.9,3.92,5.26,3.92.52,0,1.06-.08,1.58-.23,2.91-.87,4.56-3.94,3.68-6.85-.72-2.38-2.9-3.92-5.26-3.92h0Z"/>
          </g>
          <g>
            <circle class="cls-4" cx="18.02" cy="111.08" r="5.5"/>
            <path class="cls-3" d="m18.03,106.59h0c1.96,0,3.73,1.32,4.3,3.2.34,1.15.22,2.36-.35,3.42-.57,1.06-1.51,1.83-2.66,2.17-.42.13-.86.19-1.29.19-1.96,0-3.73-1.32-4.3-3.2-.71-2.37.64-4.88,3.01-5.59.42-.13.86-.19,1.29-.19m0-1.01c-.52,0-1.06.08-1.58.23-2.91.87-4.56,3.94-3.68,6.85.72,2.38,2.9,3.92,5.26,3.92.52,0,1.06-.08,1.58-.23,2.91-.87,4.56-3.94,3.68-6.85-.72-2.38-2.9-3.92-5.26-3.92h0Z"/>
          </g>
          <g>
            <circle class="cls-4" cx="66.93" cy="111.08" r="5.5"/>
            <path class="cls-3" d="m66.93,106.59h0c1.96,0,3.73,1.32,4.3,3.2.34,1.15.22,2.36-.35,3.42-.57,1.06-1.51,1.83-2.66,2.17-.42.13-.86.19-1.29.19-1.96,0-3.73-1.32-4.3-3.2-.71-2.37.64-4.88,3.01-5.59.42-.13.86-.19,1.29-.19m0-1.01c-.52,0-1.06.08-1.58.23-2.91.87-4.56,3.94-3.68,6.85.72,2.38,2.9,3.92,5.26,3.92.52,0,1.06-.08,1.58-.23,2.91-.87,4.56-3.94,3.68-6.85-.72-2.38-2.9-3.92-5.26-3.92h0Z"/>
          </g>
          <g>
            <circle class="cls-4" cx="77.64" cy="69.28" r="5.5"/>
            <path class="cls-3" d="m77.65,64.79h0c1.96,0,3.73,1.32,4.3,3.2.34,1.15.22,2.36-.35,3.42-.57,1.06-1.51,1.83-2.66,2.17-.42.13-.86.19-1.29.19-1.96,0-3.73-1.32-4.3-3.2-.34-1.15-.22-2.36.35-3.42.57-1.06,1.51-1.83,2.66-2.17.42-.13.86-.19,1.29-.19m0-1.01c-.52,0-1.06.08-1.58.23-2.91.87-4.56,3.94-3.68,6.85.72,2.38,2.9,3.92,5.26,3.92.52,0,1.06-.08,1.58-.23,2.91-.87,4.56-3.94,3.68-6.85-.72-2.38-2.9-3.92-5.26-3.92h0Z"/>
          </g>
          <g>
            <polygon class="cls-4" points="79.18 70.45 79.11 80.41 82.24 78.37 86.54 84.99 88.01 84.04 89.47 83.09 85.17 76.47 88.31 74.43 79.18 70.45"/>
            <path class="cls-3" d="m86.54,85.5s-.07,0-.1-.01c-.13-.03-.25-.11-.32-.22l-4.03-6.2-2.71,1.76c-.16.1-.35.11-.52.02-.16-.09-.26-.26-.26-.45l.07-9.96c0-.17.09-.33.23-.42.14-.09.32-.11.48-.04l9.13,3.98c.17.07.29.24.3.42.02.18-.07.36-.23.46l-2.71,1.76,4.03,6.2c.07.11.1.25.07.38-.03.13-.11.24-.22.32l-2.93,1.9c-.08.05-.18.08-.27.08Zm-4.3-7.63s.07,0,.1.01c.13.03.25.11.32.22l4.03,6.2,2.08-1.35-4.03-6.2c-.15-.23-.09-.55.15-.7l2.35-1.53-7.57-3.3-.06,8.26,2.35-1.53c.08-.05.18-.08.27-.08Z"/>
          </g>
        </g>
        <g>
          <rect class="cls-3" x="19.04" y="35.47" width="8.97" height="11.38" rx="1.52" ry="1.52"/>
          <rect class="cls-3" x="16.63" y="17.65" width="13.79" height="19.59" rx="2.46" ry="2.46"/>
          <rect class="cls-3" x="7.9" width="31.24" height="21.18" rx="3.86" ry="3.86"/>
        </g>
      </g>
      <path class="cls-3" d="m26.96,47.61h-6.88c-.58,0-1.05.38-1.05.85v2.69c0,.47.47.85,1.05.85h.87v3.67c0,.4.4.72.89.72h.25v11.83c0,.47.47.85,1.06.85h.76c.58,0,1.06-.38,1.06-.85v-11.83h.25c.49,0,.89-.32.89-.72v-3.67h.87c.58,0,1.05-.38,1.05-.85v-2.69c0-.47-.47-.85-1.05-.85Z"/>
    </g>
  </g>
</svg>