<?xml version="1.0" encoding="UTF-8"?>
<svg id="_圖層_2" data-name="圖層 2" xmlns="http://www.w3.org/2000/svg" viewBox="0 0 95.16 117.13">
  <defs>
    <style>
      .cls-1 {
        fill: #fde4ae;
      }

      .cls-1, .cls-2, .cls-3, .cls-4, .cls-5 {
        stroke-width: 0px;
      }

      .cls-6 {
        fill: none;
        stroke: #000;
        stroke-miterlimit: 10;
      }

      .cls-3 {
        fill: #fff;
      }

      .cls-4 {
        fill: #fccb66;
      }

      .cls-5 {
        fill: #ec8400;
      }
    </style>
  </defs>
  <g id="_選擇焊接加工方式" data-name="選擇焊接加工方式">
    <g>
      <path class="cls-1" d="m3.87,73.84l88.05,12.24-56.19-42.58-8.93,5.98c-6.76,5.13-14.2,11.61-19.38,19.18l-3.55,5.18Z"/>
      <polygon class="cls-4" points="90.78 117.13 2.94 104.75 3.87 73.84 91.72 86.22 90.78 117.13"/>
      <circle class="cls-4" cx="38.72" cy="58.62" r="9.18" transform="translate(-5.59 4.1) rotate(-5.65)"/>
      <path class="cls-5" d="m38.72,54.25c-4.24,0-7.79,2.87-8.85,6.78,1.06,3.9,4.61,6.78,8.85,6.78s7.79-2.87,8.85-6.78c-1.06-3.9-4.61-6.78-8.85-6.78Z"/>
      <circle class="cls-6" cx="38.72" cy="58.62" r="9.18" transform="translate(-5.59 4.1) rotate(-5.65)"/>
      <circle class="cls-6" cx="74.02" cy="96.83" r="9.18"/>
      <circle class="cls-6" cx="19.51" cy="67.8" r="5.17" transform="translate(-3.72 1.18) rotate(-3.17)"/>
      <circle class="cls-6" cx="13.51" cy="97.98" r="5.17"/>
      <circle class="cls-6" cx="23.28" cy="87.91" r="3.77"/>
      <circle class="cls-6" cx="55.65" cy="106.01" r="3.77"/>
      <circle class="cls-4" cx="59.42" cy="70.71" r="4.41"/>
      <path class="cls-5" d="m59.42,68.32c-2.09,0-3.82,1.45-4.28,3.4.46,1.95,2.2,3.4,4.28,3.4s3.82-1.45,4.28-3.4c-.46-1.95-2.2-3.4-4.28-3.4Z"/>
      <circle class="cls-6" cx="45.79" cy="87.65" r="5.17"/>
      <path class="cls-6" d="m29.86,61.09c-.46-4.51-2.52-7.11-4.02-6.59-1.66.58-3.09,5.34-2.14,10.29"/>
      <path class="cls-6" d="m55.01,102.29c3.46-1.67,3.68-5.81,2.89-8-1.07-2.95-5.03-4.33-9.56-2.14"/>
      <path class="cls-6" d="m21.01,90.92c-3.32-3.08-6.18-3.25-7.3-2.08-.5.52-.56,2.36,3.42,5.45"/>
      <path class="cls-6" d="m18.23,72.87c-4.56.22-7.22,3.11-7.23,5.51-.02,3.45,6.23,6.83,11.31,5.89"/>
      <path class="cls-6" d="m59.32,105.24c1.75,4.22,5.57,6.2,7.62,4.95,2.09-1.27,2.04-3.79-.55-8.25"/>
      <path class="cls-6" d="m18.68,98.32c.43,4.54,8.37,6.97,12.3,6.97,7.74,0,11.84-9.53,10.67-14.56"/>
      <g>
        <circle class="cls-3" cx="5.5" cy="97.98" r="5.5"/>
        <path class="cls-2" d="m5.5,93.49h0c1.96,0,3.73,1.32,4.3,3.2.34,1.15.22,2.36-.35,3.42-.57,1.06-1.51,1.83-2.66,2.17-.42.13-.86.19-1.29.19-1.96,0-3.73-1.32-4.3-3.2-.71-2.37.64-4.88,3.01-5.59.42-.13.86-.19,1.29-.19m0-1.01c-.52,0-1.06.08-1.58.23-2.91.87-4.56,3.94-3.68,6.85.72,2.38,2.9,3.92,5.26,3.92.52,0,1.06-.08,1.58-.23,2.91-.87,4.56-3.94,3.68-6.85-.72-2.38-2.9-3.92-5.26-3.92h0Z"/>
      </g>
      <g>
        <circle class="cls-3" cx="51.88" cy="81.73" r="5.5"/>
        <path class="cls-2" d="m51.88,77.24h0c1.96,0,3.73,1.32,4.3,3.2.34,1.15.22,2.36-.35,3.42-.57,1.06-1.51,1.83-2.66,2.17-.42.13-.86.19-1.29.19-1.96,0-3.73-1.32-4.3-3.2-.34-1.15-.22-2.36.35-3.42.57-1.06,1.51-1.83,2.66-2.17.42-.13.86-.19,1.29-.19m0-1.01c-.52,0-1.06.08-1.58.23-2.91.87-4.56,3.94-3.68,6.85.72,2.38,2.9,3.92,5.26,3.92.52,0,1.06-.08,1.58-.23,2.91-.87,4.56-3.94,3.68-6.85-.72-2.38-2.9-3.92-5.26-3.92h0Z"/>
      </g>
      <g>
        <circle class="cls-3" cx="29.54" cy="84.64" r="5.5"/>
        <path class="cls-2" d="m29.54,80.15h0c1.96,0,3.73,1.32,4.3,3.2.34,1.15.22,2.36-.35,3.42-.57,1.06-1.51,1.83-2.66,2.17-.42.13-.86.19-1.29.19-1.96,0-3.73-1.32-4.3-3.2-.34-1.15-.22-2.36.35-3.42.57-1.06,1.51-1.83,2.66-2.17.42-.13.86-.19,1.29-.19m0-1.01c-.52,0-1.06.08-1.58.23-2.91.87-4.56,3.94-3.68,6.85.72,2.38,2.9,3.92,5.26,3.92.52,0,1.06-.08,1.58-.23,2.91-.87,4.56-3.94,3.68-6.85-.72-2.38-2.9-3.92-5.26-3.92h0Z"/>
      </g>
      <g>
        <circle class="cls-3" cx="50.59" cy="110.16" r="5.5"/>
        <path class="cls-2" d="m50.59,105.67h0c1.96,0,3.73,1.32,4.3,3.2.34,1.15.22,2.36-.35,3.42-.57,1.06-1.51,1.83-2.66,2.17-.42.13-.86.19-1.29.19-1.96,0-3.73-1.32-4.3-3.2-.34-1.15-.22-2.36.35-3.42.57-1.06,1.51-1.83,2.66-2.17.42-.13.86-.19,1.29-.19m0-1.01c-.52,0-1.06.08-1.58.23-2.91.87-4.56,3.94-3.68,6.85.72,2.38,2.9,3.92,5.26,3.92.52,0,1.06-.08,1.58-.23,2.91-.87,4.56-3.94,3.68-6.85-.72-2.38-2.9-3.92-5.26-3.92h0Z"/>
      </g>
      <g>
        <circle class="cls-3" cx="11.91" cy="64.79" r="5.5"/>
        <path class="cls-2" d="m11.92,60.3h0c1.96,0,3.73,1.32,4.3,3.2.34,1.15.22,2.36-.35,3.42-.57,1.06-1.51,1.83-2.66,2.17-.42.13-.86.19-1.29.19-1.96,0-3.73-1.32-4.3-3.2-.34-1.15-.22-2.36.35-3.42.57-1.06,1.51-1.83,2.66-2.17.42-.13.86-.19,1.29-.19m0-1.01c-.52,0-1.06.08-1.58.23-2.91.87-4.56,3.94-3.68,6.85.72,2.38,2.9,3.92,5.26,3.92.52,0,1.06-.08,1.58-.23,2.91-.87,4.56-3.94,3.68-6.85-.72-2.38-2.9-3.92-5.26-3.92h0Z"/>
      </g>
      <g>
        <circle class="cls-3" cx="82.83" cy="95.14" r="5.5"/>
        <path class="cls-2" d="m82.83,90.65h0c1.96,0,3.73,1.32,4.3,3.2.34,1.15.22,2.36-.35,3.42-.57,1.06-1.51,1.83-2.66,2.17-.42.13-.86.19-1.29.19-1.96,0-3.73-1.32-4.3-3.2-.34-1.15-.22-2.36.35-3.42.57-1.06,1.51-1.83,2.66-2.17.42-.13.86-.19,1.29-.19m0-1.01c-.52,0-1.06.08-1.58.23-2.91.87-4.56,3.94-3.68,6.85.72,2.38,2.9,3.92,5.26,3.92.52,0,1.06-.08,1.58-.23,2.91-.87,4.56-3.94,3.68-6.85-.72-2.38-2.9-3.92-5.26-3.92h0Z"/>
      </g>
      <g>
        <polygon class="cls-3" points="84.37 96.31 84.29 106.27 87.43 104.23 91.73 110.85 93.19 109.9 94.66 108.96 90.36 102.33 93.49 100.3 84.37 96.31"/>
        <path class="cls-2" d="m91.73,111.36s-.07,0-.1-.01c-.13-.03-.25-.11-.32-.22l-4.03-6.2-2.71,1.76c-.16.1-.35.11-.52.02-.16-.09-.26-.26-.26-.45l.07-9.96c0-.17.09-.33.23-.42.14-.09.32-.11.48-.04l9.13,3.98c.17.07.29.24.3.42.02.18-.07.36-.23.46l-2.71,1.76,4.03,6.2c.07.11.1.25.07.38-.03.13-.11.24-.22.32l-2.93,1.9c-.08.05-.18.08-.27.08Zm-4.3-7.63s.07,0,.1.01c.13.03.25.11.32.22l4.03,6.2,2.08-1.35-4.03-6.2c-.15-.23-.09-.55.15-.7l2.35-1.53-7.57-3.3-.06,8.26,2.35-1.53c.08-.05.18-.08.27-.08Z"/>
      </g>
      <path class="cls-2" d="m38.89,30.52h-6.88c-.58,0-1.05.47-1.05,1.05v3.33c0,.58.47,1.05,1.05,1.05h.87v4.53c0,.49.4.89.89.89h.25v14.64c0,.58.47,1.06,1.06,1.06h.76c.58,0,1.06-.47,1.06-1.06v-14.64h.25c.49,0,.89-.4.89-.89v-4.53h.87c.58,0,1.05-.47,1.05-1.05v-3.33c0-.58-.47-1.05-1.05-1.05Z"/>
      <path class="cls-2" d="m39.89,0h-8.86c-1.36,0-2.46,1.1-2.46,2.46v14.66c0,1.34,1.07,2.43,2.41,2.46v8.11c0,.84.68,1.52,1.52,1.52h5.94c.84,0,1.52-.68,1.52-1.52v-8.11c1.34-.03,2.41-1.12,2.41-2.46V2.46c0-1.36-1.1-2.46-2.46-2.46Z"/>
      <g>
        <path class="cls-5" d="m41.72,42.28c.02.39.04.79.07,1.18.01.14-.02.19-.18.17-.68-.08-1.15.21-1.44.82-.08.17-.16.26-.38.26-.5,0-.89.25-1.12.7-.39.79-.78,1.58-1.16,2.37-.06.13-.14.28-.07.44.06.16.18.25.35.25.17,0,.28-.08.36-.24.38-.79.77-1.58,1.15-2.37.06-.12.11-.26.28-.29,0,.18-.12.3-.16.46-.14.49,0,.93.39,1.25.37.3.88.35,1.28.14.41-.22.69-.74.61-1.2-.07-.39-.28-.7-.63-.92-.14-.09-.36-.14-.26-.41.15-.39.34-.55.65-.53.3.02.42.13.42.46,0,.86.83,1.36,1.51.94.35-.22.52-.55.46-.95-.05-.39-.26-.7-.66-.84q-.62-.21-.65-.87c-.01-.29-.04-.59-.05-.88-.02-.26-.19-.43-.42-.41-.26.03-.35.21-.34.45Zm.95,2.4c.13-.05.31,0,.39.14.06.11,0,.22-.11.28-.15.08-.23,0-.29-.14-.03-.09-.1-.24,0-.28Zm-2.32,1.16c.09-.06.47.17.55.34.11.2.04.42-.17.54-.21.12-.41.06-.53-.16-.09-.17,0-.63.15-.72Z"/>
        <path class="cls-5" d="m29.54,47.84c.18.37.6.6.97.53.5-.1.86-.49.86-.96,0-.08-.02-.16-.02-.24,0-.11-.17-.24,0-.32.15-.07.31-.01.45.09.1.07.13.18.18.28.24.58.48,1.16.73,1.74.14.32.3.42.55.32.26-.1.31-.29.18-.63-.12-.3-.25-.6-.38-.9-.11-.27-.23-.54-.34-.81-.24-.58-.75-.91-1.36-.86-.24.02-.3-.07-.33-.26-.02-.11-.05-.22-.09-.32-.07-.19-.22-.26-.41-.23-.21.04-.36.21-.29.39.18.51.08.8-.46,1.02-.38.15-.44.73-.23,1.17Zm.67-.35c-.07-.14.02-.24.15-.31.08,0,.18-.12.21.04.02.13.11.28-.08.36-.12.05-.23.01-.28-.09Z"/>
      </g>
    </g>
  </g>
</svg>