<?xml version="1.0" encoding="UTF-8"?>
<svg id="_圖層_2" data-name="圖層 2" xmlns="http://www.w3.org/2000/svg" viewBox="0 0 109.16 112.6">
  <defs>
    <style>
      .cls-1 {
        stroke: #efefef;
      }

      .cls-1, .cls-2, .cls-3 {
        stroke-width: .5px;
      }

      .cls-1, .cls-2, .cls-3, .cls-4 {
        fill: none;
      }

      .cls-1, .cls-4 {
        stroke-miterlimit: 10;
      }

      .cls-5 {
        fill: #aba296;
      }

      .cls-5, .cls-6, .cls-7, .cls-8, .cls-9 {
        stroke-width: 0px;
      }

      .cls-2 {
        stroke: #000;
      }

      .cls-2, .cls-3 {
        stroke-linecap: round;
        stroke-linejoin: round;
      }

      .cls-3, .cls-4 {
        stroke: #21c14f;
      }

      .cls-7 {
        fill: #d3c6c6;
      }

      .cls-8 {
        fill: #fff;
      }

      .cls-9 {
        fill: #b6f0ca;
      }
    </style>
  </defs>
  <g id="_選擇焊接加工方式" data-name="選擇焊接加工方式">
    <g>
      <g>
        <path class="cls-7" d="m7.68,81.97s2.26.44,5.94-.11c4.16-.63,9.29-.42,9.94-.36l5.15-.11,6.77.43c1.7.11,3.37.41,5,.91l3.5,1.08c.72.22,1.46.41,2.2.56l3.54.71c1.46.29,2.95.44,4.44.44h3.51c1.24,0,2.48-.1,3.71-.3l9.48-1.56,6.3-.79c1.06-.13,2.13-.21,3.2-.24l3.29-.08c2.18-.05,4.37.2,6.48.76,0,0,4.58,1,5.6,2.74h0c.78,1.07.63,2.59.63,2.59,0,.54-.1,1.08-.29,1.59l-.41,1.08c-.1.28-.24.54-.39.79l-1,1.59.77-.27c1.12-.39,2.17-1,3.07-1.79l1.47-1.28c.82-.72,1.51-1.58,2.04-2.55h0c.35-.65.54-1.38.54-2.13v-.47c0-1.13-.31-2.24-.9-3.2l-.39-.63c-.59-.96-1.34-1.79-2.22-2.47l-1.18-.92c-.1-.08-.21-.16-.32-.23l-.89-.57c-.94-.6-1.96-1.04-3.03-1.31l-1.39-.35c-2.11-.54-4.28-.81-6.46-.81h-1.42c-1.18,0-4.65-.03-5.83.1l-4.8.88-5.51.7c-1.46.19-2.92.47-4.34.85l-4.09,1.08c-.79.21-1.59.38-2.4.5l-4.4.69c-.45.07-.9.12-1.35.16l-2.3.18c-1.31.1-2.62.05-3.91-.15l-4.9-.77-2.54-.31c-2.05-.25-4.11-.29-6.16-.11l-2.62.23-7.41.36c-.45.02-.9.06-1.34.11l-6.09.68c-1.38.15-2.74.52-4.01,1.09l-2.26,1.01Z"/>
        <path class="cls-9" d="m39.31,82.36l-3.27-.83c-1.56-.24-3.72-.43-5.3-.43l-5.44-.08c-.94-.01-1.88.02-2.82.1l-3.35.3c-1.41,0-2.81.06-4.21.17l-4.32.36c-.47.04-.95.06-1.42.06h-1.02c-.49,0-.99-.08-1.46-.24l-1-.35-1.71-.59h-.95l-1.37,1.5c-.17.18-.32.38-.46.59l-1.22,1.85v1.08h0c0,1.1.25,2.18.72,3.17l.96,2c.4.82.92,1.58,1.55,2.23l1.42,1.46c.89.91,1.88,1.72,2.95,2.39l2.08,1.31c2.1,1.33,4.33,2.43,6.65,3.29l3.22,1.19c1.54.57,3.15.95,4.78,1.14l2.57.29c1.84.21,3.71.22,5.55.04l4.12-.41c1.3-.13,2.58-.38,3.84-.74l4.96-1.43,8.18-2.56,4.47-1.38,2.34-.66c1.48-.41,2.99-.68,4.52-.8l5.51-.42,4.66-.15c1.08-.03,2.15-.11,3.22-.24l8.33-.97c1.24-.14,2.48-.34,3.7-.58l1.81-.36c1.17-.23,2.27-.74,3.21-1.48h0c.85-.67,1.45-1.62,1.7-2.7h0c.25-1.08.12-2.22-.36-3.22h0c-.38-.79-.97-1.46-1.7-1.93l-.57-.37c-1.21-.78-2.56-1.32-3.96-1.6l-1.66-.33c-2.47-.49-5-.56-7.5-.23l-4.85.64c-.66.09-1.32.2-1.98.32l-6.82,1.31c-.95.18-1.9.32-2.86.41l-6.51.61c-2.37.22-4.75.15-7.1-.2l-4.6-.7c-1.04-.16-2.07-.41-3.07-.74l-1.05-.35c-1.02-.34-2.07-.6-3.13-.76Z"/>
        <path class="cls-4" d="m2.84,82.18c-.88.38-1.8,1.34-1.9,2.47-.15,1.65,1.56,2.29,3.33,5.52.7,1.28.76,1.78,1.14,2.57,1.05,2.17,3.27,3.92,9.61,6.18,5.74,2.05,8.71,3.11,13.22,3.42,8.07.57,9.78-2.35,20.17-4.28,6.55-1.22,12.08-1.16,23.12-1.05.48,0,10.11.11,19.22-2.85,1.87-.61,4.71-1.67,5.31-3.96.55-2.11-1.09-4.15-1.32-4.42-1.37-1.65-3.4-2.3-6.75-2.66-5.69-.62-10.32.09-13.03.57-7.46,1.33-7.03,2.07-12.18,2.76-2.31.31-7.38.95-13.6,0-5.04-.77-4.77-1.66-11.61-2.95-2.76-.52-6.4-1.19-11.13-1.24-3.37-.03-2.56.3-9.7.57-5.96.23-8.97.33-10.27-.19-.12-.05-.62-.34-1.35-.51-.44-.1-1.4-.34-2.27.03Z"/>
        <path class="cls-3" d="m3.98,81.99c-1.54,1.75-2.56,3.05-2.38,3.23.32.33,4.17-3.15,4.57-2.76.38.37-3.71,4.66-3.42,4.95.28.28,5.52-4.84,5.8-4.57.26.24-4.93,5.82-4.76,5.99.2.19,6.85-6.64,7.14-6.37.3.28-6.93,8.41-6.66,8.66.29.27,8.85-8.82,9.13-8.56.25.23-8.23,9.77-8.09,9.89.15.13,9.59-10.35,9.89-10.08.31.27-8.96,11.25-8.66,11.51.26.23,10.27-11.28,10.56-11.04.29.24-9.6,12.31-9.42,12.46.19.16,11.12-13.1,11.56-12.75.44.35-9.56,13.89-9.56,13.89,0,0,10.24-14.61,10.75-14.27.51.33-8.84,15.33-8.56,15.51.29.18,10.45-15.9,10.94-15.6.49.29-8.91,16.6-8.66,16.74.26.15,10.21-16.9,10.66-16.65.44.25-8.79,17.33-8.47,17.51.32.18,10.12-17.5,10.66-17.22.53.28-8.3,17.83-7.99,17.98.31.16,9.71-18.12,10.18-17.89.46.23-8.03,18.25-7.8,18.36.23.11,9.21-18.78,9.7-18.55.49.22-7.53,18.66-7.14,18.84.4.18,8.99-18.65,9.42-18.46.42.19-7.56,18.98-7.23,19.12.33.14,8.76-19.07,9.32-18.84.55.23-6.72,18.7-6.37,18.84.35.14,8.02-18.76,8.56-18.55.53.2-6.12,18.53-5.8,18.65.32.12,7.23-18.47,7.8-18.27.55.19-5.27,17.94-4.85,18.08.42.14,6.66-17.76,7.14-17.6.46.15-4.93,17.16-4.47,17.31.46.15,6.31-16.7,6.75-16.55.43.14-4.56,15.83-4.09,15.98.47.16,6.05-15.77,6.56-15.6.48.16-3.99,14.63-3.62,14.75.38.12,5.29-14.62,5.8-14.46.49.15-3.5,13.81-2.95,13.99.56.18,5.29-13.65,5.71-13.51.4.13-3.48,12.6-3.04,12.75.45.15,4.92-12.63,5.42-12.46.47.15-3.07,11.66-2.66,11.8.34.11,4.22-11.93,4.66-11.8.47.14-3.25,13.58-2.85,13.7.42.12,4.78-14.23,5.33-14.08.52.14-2.84,13.19-2.38,13.32.48.13,4.52-13.63,4.95-13.51.41.11-2.91,12.82-2.47,12.94.46.13,4.58-13.64,5.04-13.51.45.13-3.03,13.38-2.57,13.51.48.13,4.67-13.95,5.23-13.79.54.15-2.78,13.37-2.28,13.51.52.14,4.59-13.94,5.14-13.79.53.14-2.63,13.2-2.19,13.32.47.12,4.33-14.34,5.04-14.18.7.16-2.11,14.09-1.71,14.18.42.09,3.75-14.72,4.09-14.65.35.07-2.65,15.24-2.28,15.32.37.08,3.66-15.46,4.47-15.32.8.14-1.26,15.37-.95,15.41.32.04,2.5-16.06,3.23-15.98.7.07-.37,14.7.19,14.75.57.05,2.18-15.18,2.76-15.13.57.05-.45,15.07.19,15.13.65.06,2.43-15.27,2.95-15.22.52.05-.76,15.26-.19,15.32.57.06,2.42-15,3.04-14.94.6.06-.47,14.13,0,14.18.46.04,1.95-13.57,2.32-13.53.35.03-.58,11.88-.23,11.92.35.03,1.56-11.55,2.09-11.51.5.04,0,10.63.38,10.66.37.02,1.1-9.92,1.62-9.89.5.02.33,9.4.76,9.42.24,0,.58-2.94.98-7.85"/>
        <path class="cls-2" d="m20.44,82.18c.51.33-8.84,15.33-8.56,15.51.29.18,10.45-15.9,10.94-15.6.49.29-8.91,16.6-8.66,16.74.26.15,10.21-16.9,10.66-16.65.44.25-8.79,17.33-8.47,17.51.32.18,10.12-17.5,10.66-17.22.53.28-8.3,17.83-7.99,17.98.31.16,9.71-18.12,10.18-17.89.46.23-8.03,18.25-7.8,18.36.23.11,9.21-18.78,9.7-18.55.49.22-7.53,18.66-7.14,18.84.4.18,8.99-18.65,9.42-18.46.42.19-7.56,18.98-7.23,19.12.33.14,8.76-19.07,9.32-18.84.55.23-6.72,18.7-6.37,18.84.35.14,8.02-18.76,8.56-18.55.53.2-6.12,18.53-5.8,18.65.32.12,7.23-18.47,7.8-18.27.55.19-5.27,17.94-4.85,18.08.42.14,6.66-17.76,7.14-17.6.46.15-4.93,17.16-4.47,17.31.46.15,6.31-16.7,6.75-16.55.43.14-4.56,15.83-4.09,15.98.47.16,6.05-15.77,6.56-15.6.48.16-3.99,14.63-3.62,14.75.38.12,5.29-14.62,5.8-14.46.49.15-3.5,13.81-2.95,13.99.56.18,5.29-13.65,5.71-13.51.4.13-3.48,12.6-3.04,12.75.45.15,4.92-12.63,5.42-12.46.47.15-3.07,11.66-2.66,11.8.34.11,4.22-11.93,4.66-11.8.47.14-3.25,13.58-2.85,13.7.42.12,4.78-14.23,5.33-14.08.52.14-2.84,13.19-2.38,13.32.48.13,4.52-13.63,4.95-13.51.41.11-2.91,12.82-2.47,12.94.46.13,4.58-13.64,5.04-13.51.45.13-3.03,13.38-2.57,13.51.48.13,4.67-13.95,5.23-13.79.54.15-2.78,13.37-2.28,13.51.52.14,4.59-13.94,5.14-13.79.53.14-2.63,13.2-2.19,13.32.47.12,4.33-14.34,5.04-14.18.7.16-2.11,14.09-1.71,14.18.42.09,3.75-14.72,4.09-14.65.35.07-2.65,15.24-2.28,15.32.37.08,3.66-15.46,4.47-15.32.8.14-1.26,15.37-.95,15.41.32.04,2.5-16.06,3.23-15.98.7.07-.37,14.7.19,14.75.57.05,2.18-15.18,2.76-15.13.57.05-.45,15.07.19,15.13.65.06,2.43-15.27,2.95-15.22.52.05-.76,15.26-.19,15.32.57.06,2.42-15,3.04-14.94.6.06-.47,14.13,0,14.18.46.04,1.95-13.57,2.32-13.53.35.03-.58,11.88-.23,11.92.35.03,1.56-11.55,2.09-11.51.5.04,0,10.63.38,10.66.37.02,1.1-9.92,1.62-9.89.5.02.33,9.4.76,9.42.24,0,.58-2.94.98-7.85"/>
        <path class="cls-5" d="m.66,91.29l.1.42c.32,1.33.84,2.61,1.54,3.77l.51.84c.66,1.09,1.42,2.11,2.26,3.06l.95,1.07c1.25,1.41,2.68,2.63,4.25,3.63l5.77,3.67c.85.54,1.75,1.02,2.67,1.42l1.18.51c1.01.44,2.06.8,3.12,1.07l4.89,1.25c1.56.4,3.17.6,4.78.6h2.8c.89,0,1.78-.1,2.65-.29l10.56-2.32c.14-.03.29-.07.43-.11l6.16-1.9,2.46-.73c1.02-.3,2.07-.47,3.13-.5l4.9-.14c.11,0,.22,0,.33,0l5.83.19,7.14.42c.82.05,1.64.06,2.47.02l8.09-.33c.19,0,.37-.03.56-.05l1.73-.26c1.32-.19,4.48-1.38,4.48-1.38.74-.32,1.44-.75,2.07-1.27l1.3-1.07c.97-.79,1.82-1.73,2.52-2.78l.6-.89c.35-.52.64-1.07.88-1.64l.12-.3c.62-1.5.94-3.12.94-4.75v-2c0-.36-.03-.72-.1-1.07l-.09-.46c-.19-1.02-.65-1.97-1.32-2.74h0c-.51-.58-.9-1.27-1.14-2.02l-.11-.34-.36,1.52c-.2.87-.26,2.27-.82,2.95l-1.2,1.27c-.48.58-1.39.98-2.04,1.32l-1.58.52c-1.25.65-2.59,1.11-3.96,1.38l-4.45.87c-1.04.2-14.98,1.29-14.98,1.29l-6.14.66c-.79.09-1.58.22-2.36.39l-7.71,1.76c-.11.02-.21.05-.32.08l-7.55,2.22-6.43,1.83c-.09.03-.19.05-.28.07l-6.09,1.38c-1.61.37-3.27.49-4.91.37l-2.67-.19c-.18-.01-.36-.03-.53-.07l-5.79-1.01c-.85-.15-1.68-.36-2.5-.63l-5.05-1.7c-.89-.3-1.75-.67-2.58-1.1l-2.22-1.17c-.92-.49-1.79-1.07-2.6-1.74l-1.14-.95c-1.39-1.16-2.48-2.67-3.17-4.37l-.31-.76c-.05-.12-.1-.24-.16-.36l-1.06-2.19-1.14-2.66v2.34c.06,1.36.35,2.76.66,4.08Z"/>
        <path class="cls-1" d="m16.94,79.61l-3.84.7c-.56.1-1.11.24-1.66.41l-1.04.32s-.05.02-.08.03l-1.2.65c-.06.03-.13.05-.2.05h-1.59c-.75,0-1.49-.22-2.13-.63h0s-.05-.03-.08-.04l-.68-.26c-.5-.19-1.05-.13-1.49.17l-.58.38c-.2.13-.37.31-.5.51l-.83,1.31c-.34.54-.72.99-.76,1.62,0,.08.01.15.04.22l.5,1.2.89,2.1c.04.35,1.55,2.96,2.56,4.69.67,1.15,1.52,2.17,2.53,3.01.52.43,1.05.84,1.6,1.23,0,0,0,0,0,0,.09.05,3.26,1.84,4.9,2.49l4.97,1.79c1.21.48,2.46.85,3.73,1.12l2.28.47c.64.13,2.87.33,4.52.46l4.23-.08c2.92-.35,7.48-1.03,8.47-1.34l4.2-1.24,5.61-1.62,5.73-1.48,6.01-1.44h.02s3.59-.66,3.59-.66h.02s4.49-.56,4.49-.56c1-.12,2.01-.2,3.02-.23l2.98-.08s.02,0,.04,0c0,0,12.78-1.24,14.89-2.03l4.19-1.2c1.46-.54,2.79-1.4,3.92-2.5h0c.57-.56.72-.72,1.26-1.93,0,0,.54-2.25.4-3.11,0-.03,0-.05-.02-.07l-.25-.89c-.16-.56-.38-1.1-.65-1.62h0c-.28-.53-.63-1.01-1.05-1.43l-1.5-1.51s-.03-.03-.05-.04l-1.04-.76c-1.01-.74-2.14-1.29-3.34-1.64l-2.12-.61c-.59-.17-1.19-.29-1.8-.37l-2.71-.34c-.76-.09-1.52-.14-2.28-.14h-5.08c-1.01,0-2.02.09-3.01.26,0,0-5.27.8-5.99.94,0,0-4.44.71-5.46,1l-2.41.68-5.07,1.18-3.91.78s-.03,0-.05,0l-2.35.2c-1.46.13-2.92.11-4.37-.05l-4.54-.49-6.15-.46-6.01-.2h-.03s-7.07.33-7.07.33h-.03s-6.57.72-6.57.72h-.03Z"/>
      </g>
      <g>
        <path class="cls-6" d="m22.92,64.02h-4.75c-.4,0-.72.32-.72.72v2.3c0,.4.32.72.72.72h.6v3.13c0,.34.27.61.61.61h.17v10.11c0,.4.33.73.73.73h.52c.4,0,.73-.33.73-.73v-10.11h.17c.34,0,.61-.27.61-.61v-3.13h.6c.4,0,.72-.32.72-.72v-2.3c0-.4-.32-.72-.72-.72Z"/>
        <path class="cls-6" d="m17.49,63.11h6.12c.94,0,1.7-.76,1.7-1.7v-10.12c0-.93-.74-1.68-1.66-1.7v-5.6c0-.58-.47-1.05-1.05-1.05h-4.1c-.58,0-1.05.47-1.05,1.05v5.6c-.92.02-1.66.77-1.66,1.7v10.12c0,.94.76,1.7,1.7,1.7Z"/>
        <rect class="cls-6" x="12.87" y="0" width="15.26" height="53.87"/>
        <rect class="cls-6" x="13.72" y="51.71" width="33.03" height="2.17"/>
        <path class="cls-6" d="m29.44,0c-.04.2-.06.41-.06.63v37.39c0,1.82,1.48,3.3,3.3,3.3h10.76c1.82,0,3.3-1.48,3.3-3.3V.63c0-.22-.02-.42-.06-.63h-17.25Z"/>
        <path class="cls-6" d="m33.3,41.32v5.35c0,.8.74,1.45,1.66,1.46v4.83c0,.5.47.9,1.05.9h4.1c.58,0,1.05-.4,1.05-.9v-4.83c.92-.02,1.66-.66,1.66-1.46v-5.35h-9.53Z"/>
      </g>
      <g>
        <circle class="cls-8" cx="95.03" cy="83.73" r="5.5"/>
        <path class="cls-6" d="m90.62,84.62h0c-.39-1.92.55-3.92,2.28-4.85,1.06-.57,2.27-.69,3.42-.34,1.15.35,2.09,1.12,2.66,2.18.21.39.36.8.44,1.23.39,1.93-.55,3.92-2.28,4.85-1.06.57-2.27.69-3.42.34-1.15-.35-2.09-1.12-2.66-2.18-.21-.39-.36-.8-.45-1.23m-.99.2c.1.51.28,1.02.54,1.51,1.43,2.68,4.77,3.68,7.44,2.25,2.19-1.17,3.26-3.62,2.79-5.94-.1-.51-.28-1.02-.54-1.51-1.43-2.68-4.77-3.68-7.44-2.25-2.19,1.17-3.26,3.62-2.79,5.94h0Z"/>
      </g>
      <g>
        <circle class="cls-8" cx="81.04" cy="89.12" r="5.5"/>
        <path class="cls-6" d="m81.04,84.62h0c1.96,0,3.73,1.32,4.3,3.2.34,1.15.22,2.36-.35,3.42-.57,1.06-1.51,1.83-2.66,2.17-.42.13-.86.19-1.29.19-1.96,0-3.73-1.32-4.3-3.2-.34-1.15-.22-2.36.35-3.42.57-1.06,1.51-1.83,2.66-2.17.42-.13.86-.19,1.29-.19m0-1.01c-.52,0-1.06.08-1.58.23-2.91.87-4.56,3.94-3.68,6.85.72,2.38,2.9,3.92,5.26,3.92.52,0,1.06-.08,1.58-.23,2.91-.87,4.56-3.94,3.68-6.85-.72-2.38-2.9-3.92-5.26-3.92h0Z"/>
      </g>
      <g>
        <circle class="cls-8" cx="65.83" cy="84.99" r="5.5"/>
        <path class="cls-6" d="m65.84,80.49h0c1.96,0,3.73,1.32,4.3,3.2.34,1.15.22,2.36-.35,3.42-.57,1.06-1.51,1.83-2.66,2.17-.42.13-.86.19-1.29.19-1.96,0-3.73-1.32-4.3-3.2-.34-1.15-.22-2.36.35-3.42.57-1.06,1.51-1.83,2.66-2.17.42-.13.86-.19,1.29-.19m0-1.01c-.52,0-1.06.08-1.58.23-2.91.87-4.56,3.94-3.68,6.85.72,2.38,2.9,3.92,5.26,3.92.52,0,1.06-.08,1.58-.23,2.91-.87,4.56-3.94,3.68-6.85-.72-2.38-2.9-3.92-5.26-3.92h0Z"/>
      </g>
      <g>
        <circle class="cls-8" cx="51.09" cy="93.67" r="5.5"/>
        <path class="cls-6" d="m51.09,89.18h0c1.96,0,3.73,1.32,4.3,3.2.34,1.15.22,2.36-.35,3.42-.57,1.06-1.51,1.83-2.66,2.17-.42.13-.86.19-1.29.19-1.96,0-3.73-1.32-4.3-3.2-.34-1.15-.22-2.36.35-3.42.57-1.06,1.51-1.83,2.66-2.17.42-.13.86-.19,1.29-.19m0-1.01c-.52,0-1.06.08-1.58.23-2.91.87-4.56,3.94-3.68,6.85.72,2.38,2.9,3.92,5.26,3.92.52,0,1.06-.08,1.58-.23,2.91-.87,4.56-3.94,3.68-6.85-.72-2.38-2.9-3.92-5.26-3.92h0Z"/>
      </g>
      <g>
        <circle class="cls-8" cx="29.38" cy="85.62" r="5.5"/>
        <path class="cls-6" d="m29.38,81.13h0c1.96,0,3.73,1.32,4.3,3.2.34,1.15.22,2.36-.35,3.42-.57,1.06-1.51,1.83-2.66,2.17-.42.13-.86.19-1.29.19-1.96,0-3.73-1.32-4.3-3.2-.34-1.15-.22-2.36.35-3.42.57-1.06,1.51-1.83,2.66-2.17.42-.13.86-.19,1.29-.19m0-1.01c-.52,0-1.06.08-1.58.23-2.91.87-4.56,3.94-3.68,6.85.72,2.38,2.9,3.92,5.26,3.92.52,0,1.06-.08,1.58-.23,2.91-.87,4.56-3.94,3.68-6.85-.72-2.38-2.9-3.92-5.26-3.92h0Z"/>
      </g>
      <g>
        <circle class="cls-8" cx="13.72" cy="94.74" r="5.5"/>
        <path class="cls-6" d="m13.72,90.25h0c1.96,0,3.73,1.32,4.3,3.2.34,1.15.22,2.36-.35,3.42-.57,1.06-1.51,1.83-2.66,2.17-.42.13-.86.19-1.29.19-1.96,0-3.73-1.32-4.3-3.2-.34-1.15-.22-2.36.35-3.42.57-1.06,1.51-1.83,2.66-2.17.42-.13.86-.19,1.29-.19m0-1.01c-.52,0-1.06.08-1.58.23-2.91.87-4.56,3.94-3.68,6.85.72,2.38,2.9,3.92,5.26,3.92.52,0,1.06-.08,1.58-.23,2.91-.87,4.56-3.94,3.68-6.85-.72-2.38-2.9-3.92-5.26-3.92h0Z"/>
      </g>
      <g>
        <polygon class="cls-8" points="95.87 81.99 105.64 80.08 103.02 77.41 108.65 71.88 107.43 70.63 106.21 69.39 100.57 74.92 97.95 72.25 95.87 81.99"/>
        <path class="cls-6" d="m109.15,71.78s.01.07,0,.1c0,.13-.06.26-.15.36l-5.27,5.18,2.27,2.31c.13.13.18.33.12.5-.05.18-.2.31-.38.35l-9.77,1.91c-.17.03-.34-.02-.46-.14-.12-.12-.17-.29-.13-.46l2.09-9.74c.04-.18.17-.33.35-.38.18-.05.37,0,.5.13l2.27,2.31,5.27-5.18c.1-.09.22-.15.36-.14.13,0,.26.06.35.15l2.44,2.49c.07.07.12.16.13.25Zm-6.62,5.73s-.01-.07,0-.1c0-.13.06-.26.15-.36l5.27-5.18-1.74-1.77-5.27,5.18c-.2.19-.52.19-.71,0l-1.96-2-1.73,8.07,8.1-1.58-1.96-2c-.07-.07-.12-.16-.13-.25Z"/>
      </g>
    </g>
  </g>
</svg>