<?xml version="1.0" encoding="UTF-8"?>
<svg id="_圖層_2" data-name="圖層 2" xmlns="http://www.w3.org/2000/svg" xmlns:xlink="http://www.w3.org/1999/xlink" viewBox="0 0 88.64 123.83">
  <defs>
    <style>
      .cls-1, .cls-2, .cls-3, .cls-4, .cls-5, .cls-6, .cls-7 {
        stroke-width: 0px;
      }

      .cls-8 {
        fill: none;
        stroke: #000;
        stroke-linecap: round;
        stroke-linejoin: round;
      }

      .cls-2 {
        fill: #2d2d2d;
      }

      .cls-3 {
        fill: url(#_未命名漸層_66);
      }

      .cls-4 {
        fill: #fff;
      }

      .cls-5 {
        fill: url(#_未命名漸層_80);
      }

      .cls-6 {
        opacity: .33;
      }

      .cls-7 {
        fill: #dedee4;
      }
    </style>
    <linearGradient id="_未命名漸層_66" data-name="未命名漸層 66" x1="-1.48" y1="101.29" x2="84.5" y2="101.29" gradientUnits="userSpaceOnUse">
      <stop offset="0" stop-color="#000"/>
      <stop offset=".01" stop-color="#050505"/>
      <stop offset=".03" stop-color="#141414"/>
      <stop offset=".04" stop-color="#2e2e2e"/>
      <stop offset=".06" stop-color="#525252"/>
      <stop offset=".08" stop-color="gray"/>
      <stop offset=".1" stop-color="#b8b8b8"/>
      <stop offset=".12" stop-color="#fafafa"/>
      <stop offset=".12" stop-color="#fefefe"/>
      <stop offset=".14" stop-color="#cfcfcf"/>
      <stop offset=".19" stop-color="#777"/>
      <stop offset=".22" stop-color="#373737"/>
      <stop offset=".25" stop-color="#0f0f0f"/>
      <stop offset=".27" stop-color="#000"/>
      <stop offset=".3" stop-color="#141414"/>
      <stop offset=".36" stop-color="#4b4b4b"/>
      <stop offset=".46" stop-color="#a1a1a1"/>
      <stop offset=".52" stop-color="#ddd"/>
      <stop offset=".63" stop-color="#f5f5f5"/>
      <stop offset=".7" stop-color="#fff"/>
      <stop offset=".72" stop-color="#dbdbdb"/>
      <stop offset=".78" stop-color="#999"/>
      <stop offset=".84" stop-color="#626262"/>
      <stop offset=".89" stop-color="#383838"/>
      <stop offset=".93" stop-color="#191919"/>
      <stop offset=".97" stop-color="#060606"/>
      <stop offset="1" stop-color="#000"/>
    </linearGradient>
    <linearGradient id="_未命名漸層_80" data-name="未命名漸層 80" x1="3.9" y1="65.22" x2="47.63" y2="65.22" gradientUnits="userSpaceOnUse">
      <stop offset="0" stop-color="#3fa9f5"/>
      <stop offset=".02" stop-color="#44abf5"/>
      <stop offset=".04" stop-color="#53b2f5"/>
      <stop offset=".05" stop-color="#6dbdf7"/>
      <stop offset=".07" stop-color="#91cdf8"/>
      <stop offset=".1" stop-color="#bfe2fb"/>
      <stop offset=".12" stop-color="#f6fafd"/>
      <stop offset=".12" stop-color="#fefefe"/>
      <stop offset=".14" stop-color="#cfe4f1"/>
      <stop offset=".19" stop-color="#77b3db"/>
      <stop offset=".22" stop-color="#378fca"/>
      <stop offset=".25" stop-color="#0f79bf"/>
      <stop offset=".27" stop-color="#0071bc"/>
      <stop offset=".37" stop-color="#0e85c9"/>
      <stop offset=".52" stop-color="#29abe2"/>
      <stop offset=".52" stop-color="#29abe2"/>
      <stop offset=".57" stop-color="#74c8ec"/>
      <stop offset=".61" stop-color="#b0e0f4"/>
      <stop offset=".65" stop-color="#daf0fa"/>
      <stop offset=".68" stop-color="#f5fbfd"/>
      <stop offset=".7" stop-color="#fff"/>
      <stop offset=".72" stop-color="#dbebf5"/>
      <stop offset=".78" stop-color="#99c6e4"/>
      <stop offset=".84" stop-color="#62a8d5"/>
      <stop offset=".89" stop-color="#3890ca"/>
      <stop offset=".93" stop-color="#197fc2"/>
      <stop offset=".97" stop-color="#0674bd"/>
      <stop offset="1" stop-color="#0071bc"/>
    </linearGradient>
  </defs>
  <g id="_選擇焊接加工方式" data-name="選擇焊接加工方式">
    <g>
      <path class="cls-3" d="m78.79,93.2v-13.46c-.69,15.92-18.05,28.66-39.38,28.66S0,95.13,0,78.75v16.41h.03c.69,15.92,18.05,28.67,39.38,28.67s39.41-13.27,39.41-29.65c0-.33-.02-.66-.03-.98Z"/>
      <g>
        <path class="cls-7" d="m39.41,108.15C17.82,108.15.25,94.96.25,78.75s17.57-29.4,39.16-29.4,39.16,13.19,39.16,29.4-17.57,29.4-39.16,29.4Z"/>
        <path class="cls-2" d="m39.41,49.61c21.46,0,38.91,13.08,38.91,29.15s-17.46,29.15-38.91,29.15S.5,94.82.5,78.75s17.46-29.15,38.91-29.15m0-.5C17.65,49.11,0,62.38,0,78.75s17.65,29.65,39.41,29.65,39.41-13.27,39.41-29.65-17.65-29.65-39.41-29.65h0Z"/>
      </g>
      <path class="cls-5" d="m3.9,65.89c1.09,1.63,2.48,3.05,4.08,4.19,1.02,3.26,3.05,6.08,5.72,8.08,1.47,1.1,2.86,1.72,3.43,1.96,2.46,1.02,4.69,1.23,6.16,1.23.2,0,2.48-.01,4.74-.71,4.48-1.38,8.11-4.68,9.96-8.93,5.67-2.47,9.64-8.12,9.64-14.7,0-2.71-.68-5.25-1.86-7.49-2.07-.25-4.19-.39-6.36-.39-15.64,0-29.15,6.85-35.52,16.78Z"/>
      <g>
        <g>
          <path class="cls-1" d="m15.58,63.79h27.14c1.43,0,2.58-1.16,2.58-2.58v-2.76c0-1.43-1.16-2.58-2.58-2.58h-.98l-1.17-11.2c0-1.21-.98-2.19-2.19-2.19h-.61v-3.4c0-1.44-1.17-2.61-2.61-2.61h-12.01c-1.44,0-2.61,1.17-2.61,2.61v3.4h-.61c-1.21,0-2.19.98-2.19,2.19l-1.33,11.2h-.82c-1.43,0-2.58,1.16-2.58,2.58v2.76c0,1.43,1.16,2.58,2.58,2.58Z"/>
          <path class="cls-1" d="m45.19,0H13.16c-3.36,0-6.09,2.72-6.09,6.09v17.85c0,3.31,2.65,6,5.95,6.07v5.62c0,2.07,1.68,3.74,3.74,3.74h24.82c2.07,0,3.74-1.68,3.74-3.74v-5.62c3.3-.07,5.95-2.76,5.95-6.07V6.09c0-3.36-2.72-6.09-6.09-6.09Z"/>
        </g>
        <ellipse class="cls-1" cx="29.15" cy="61.86" rx="16.15" ry="5.09"/>
      </g>
      <path class="cls-8" d="m72.02,81.63c-9.09,10.12-17.21,16.51-18.71,15.19-2.33-2.05,15.47-27.99,13.24-30.22-2.96-2.96-32.91,39.66-36.88,37.01-4.56-3.04,31.41-41.21,27.62-44.03s-36.35,41.71-41.12,38.74c-2.43-1.52,5.58-9,3.79-12.35-1.98-3.72-9.81,4.15-12.44,2.21-2.03-1.5,3.26-6.83,6.17-10.02"/>
      <g>
        <circle class="cls-4" cx="74.51" cy="78.22" r="5.5"/>
        <path class="cls-1" d="m70.11,79.11h0c-.39-1.92.55-3.92,2.28-4.85,1.06-.57,2.27-.69,3.42-.34,1.15.35,2.09,1.12,2.66,2.18.21.39.36.8.44,1.23.39,1.93-.55,3.92-2.28,4.85-1.06.57-2.27.69-3.42.34-1.15-.35-2.09-1.12-2.66-2.18-.21-.39-.36-.8-.45-1.23m-.99.2c.1.51.28,1.02.54,1.51,1.43,2.68,4.77,3.68,7.44,2.25,2.19-1.17,3.26-3.62,2.79-5.94-.1-.51-.28-1.02-.54-1.51-1.43-2.68-4.77-3.68-7.44-2.25-2.19,1.17-3.26,3.62-2.79,5.94h0Z"/>
      </g>
      <g>
        <circle class="cls-4" cx="64.52" cy="68.66" r="5.5"/>
        <path class="cls-1" d="m60.12,69.55h0c-.39-1.92.55-3.92,2.28-4.85,1.06-.57,2.27-.69,3.42-.34,1.15.35,2.09,1.12,2.66,2.18.21.39.36.8.44,1.23.39,1.93-.55,3.92-2.28,4.85-1.06.57-2.27.69-3.42.34-1.15-.35-2.09-1.12-2.66-2.18-.21-.39-.36-.8-.45-1.23m-.99.2c.1.51.28,1.02.54,1.51,1.43,2.68,4.77,3.68,7.44,2.25,2.19-1.17,3.26-3.62,2.79-5.94-.1-.51-.28-1.02-.54-1.51-1.43-2.68-4.77-3.68-7.44-2.25-2.19,1.17-3.26,3.62-2.79,5.94h0Z"/>
      </g>
      <g>
        <circle class="cls-4" cx="56.05" cy="59.45" r="5.5"/>
        <path class="cls-1" d="m51.65,60.34h0c-.39-1.92.55-3.92,2.28-4.85,1.06-.57,2.27-.69,3.42-.34,1.15.35,2.09,1.12,2.66,2.18.21.39.36.8.44,1.23.39,1.93-.55,3.92-2.28,4.85-1.06.57-2.27.69-3.42.34-1.15-.35-2.09-1.12-2.66-2.18-.21-.39-.36-.8-.45-1.23m-.99.2c.1.51.28,1.02.54,1.51,1.43,2.68,4.77,3.68,7.44,2.25,2.19-1.17,3.26-3.62,2.79-5.94-.1-.51-.28-1.02-.54-1.51-1.43-2.68-4.77-3.68-7.44-2.25-2.19,1.17-3.26,3.62-2.79,5.94h0Z"/>
      </g>
      <g>
        <circle class="cls-4" cx="17.55" cy="95.79" r="5.5"/>
        <path class="cls-1" d="m13.15,96.68h0c-.39-1.92.55-3.92,2.28-4.85,1.06-.57,2.27-.69,3.42-.34,1.15.35,2.09,1.12,2.66,2.18.21.39.36.8.44,1.23.39,1.93-.55,3.92-2.28,4.85-1.06.57-2.27.69-3.42.34-1.15-.35-2.09-1.12-2.66-2.18-.21-.39-.36-.8-.45-1.23m-.99.2c.1.51.28,1.02.54,1.51,1.43,2.68,4.77,3.68,7.44,2.25,2.19-1.17,3.26-3.62,2.79-5.94-.1-.51-.28-1.02-.54-1.51-1.43-2.68-4.77-3.68-7.44-2.25-2.19,1.17-3.26,3.62-2.79,5.94h0Z"/>
      </g>
      <g>
        <circle class="cls-4" cx="19.7" cy="84.01" r="5.5"/>
        <path class="cls-1" d="m15.29,84.9h0c-.39-1.92.55-3.92,2.28-4.85,1.06-.57,2.27-.69,3.42-.34,1.15.35,2.09,1.12,2.66,2.18.21.39.36.8.44,1.23.39,1.93-.55,3.92-2.28,4.85-1.06.57-2.27.69-3.42.34-1.15-.35-2.09-1.12-2.66-2.18-.21-.39-.36-.8-.45-1.23m-.99.2c.1.51.28,1.02.54,1.51,1.43,2.68,4.77,3.68,7.44,2.25,2.19-1.17,3.26-3.62,2.79-5.94-.1-.51-.28-1.02-.54-1.51-1.43-2.68-4.77-3.68-7.44-2.25-2.19,1.17-3.26,3.62-2.79,5.94h0Z"/>
      </g>
      <g>
        <circle class="cls-4" cx="8.15" cy="85.8" r="5.5"/>
        <path class="cls-1" d="m3.74,86.69h0c-.39-1.92.55-3.92,2.28-4.85,1.06-.57,2.27-.69,3.42-.34,1.15.35,2.09,1.12,2.66,2.18.21.39.36.8.44,1.23.39,1.93-.55,3.92-2.28,4.85-1.06.57-2.27.69-3.42.34-1.15-.35-2.09-1.12-2.66-2.18-.21-.39-.36-.8-.45-1.23m-.99.2c.1.51.28,1.02.54,1.51,1.43,2.68,4.77,3.68,7.44,2.25,2.19-1.17,3.26-3.62,2.79-5.94-.1-.51-.28-1.02-.54-1.51-1.43-2.68-4.77-3.68-7.44-2.25-2.19,1.17-3.26,3.62-2.79,5.94h0Z"/>
      </g>
      <g>
        <circle class="cls-4" cx="53.13" cy="96.24" r="5.5"/>
        <path class="cls-1" d="m48.73,97.13h0c-.39-1.92.55-3.92,2.28-4.85,1.06-.57,2.27-.69,3.42-.34,1.15.35,2.09,1.12,2.66,2.18.21.39.36.8.44,1.23.39,1.93-.55,3.92-2.28,4.85-1.06.57-2.27.69-3.42.34-1.15-.35-2.09-1.12-2.66-2.18-.21-.39-.36-.8-.45-1.23m-.99.2c.1.51.28,1.02.54,1.51,1.43,2.68,4.77,3.68,7.44,2.25,2.19-1.17,3.26-3.62,2.79-5.94-.1-.51-.28-1.02-.54-1.51-1.43-2.68-4.77-3.68-7.44-2.25-2.19,1.17-3.26,3.62-2.79,5.94h0Z"/>
      </g>
      <g>
        <circle class="cls-4" cx="31.73" cy="100.73" r="5.5"/>
        <path class="cls-1" d="m27.33,101.62h0c-.39-1.92.55-3.92,2.28-4.85,1.06-.57,2.27-.69,3.42-.34,1.15.35,2.09,1.12,2.66,2.18.21.39.36.8.44,1.23.39,1.93-.55,3.92-2.28,4.85-1.06.57-2.27.69-3.42.34-1.15-.35-2.09-1.12-2.66-2.18-.21-.39-.36-.8-.45-1.23m-.99.2c.1.51.28,1.02.54,1.51,1.43,2.68,4.77,3.68,7.44,2.25,2.19-1.17,3.26-3.62,2.79-5.94-.1-.51-.28-1.02-.54-1.51-1.43-2.68-4.77-3.68-7.44-2.25-2.19,1.17-3.26,3.62-2.79,5.94h0Z"/>
      </g>
      <g>
        <polygon class="cls-4" points="75.35 76.48 85.12 74.57 82.5 71.9 88.13 66.37 86.91 65.13 85.69 63.88 80.06 69.42 77.44 66.75 75.35 76.48"/>
        <path class="cls-1" d="m88.63,66.27s.01.07,0,.1c0,.13-.06.26-.15.36l-5.27,5.18,2.27,2.31c.13.13.18.33.12.5-.05.18-.2.31-.38.35l-9.77,1.91c-.17.03-.34-.02-.46-.14-.12-.12-.17-.29-.13-.46l2.09-9.74c.04-.18.17-.33.35-.38.18-.05.37,0,.5.13l2.27,2.31,5.27-5.18c.1-.09.22-.15.36-.14.13,0,.26.06.35.15l2.44,2.49c.07.07.12.16.13.25Zm-6.62,5.73s-.01-.07,0-.1c0-.13.06-.26.15-.36l5.27-5.18-1.74-1.77-5.27,5.18c-.2.19-.52.19-.71,0l-1.96-2-1.73,8.07,8.1-1.58-1.96-2c-.07-.07-.12-.16-.13-.25Z"/>
      </g>
      <ellipse class="cls-6" cx="29.15" cy="62.73" rx="16.15" ry="6.59"/>
    </g>
  </g>
</svg>