<?xml version="1.0" encoding="UTF-8"?>
<svg id="_圖層_2" data-name="圖層 2" xmlns="http://www.w3.org/2000/svg" xmlns:xlink="http://www.w3.org/1999/xlink" viewBox="0 0 155.77 90.97">
  <defs>
    <style>
      .cls-1 {
        fill: url(#_未命名漸層_134);
      }

      .cls-1, .cls-2, .cls-3, .cls-4, .cls-5, .cls-6 {
        stroke-width: 0px;
      }

      .cls-7 {
        fill: none;
        stroke: #000;
        stroke-miterlimit: 10;
      }

      .cls-3 {
        fill: #fff;
      }

      .cls-4 {
        fill: #f52d16;
      }

      .cls-5 {
        fill: #dd4931;
      }

      .cls-6 {
        fill: url(#_未命名漸層_51);
      }
    </style>
    <linearGradient id="_未命名漸層_51" data-name="未命名漸層 51" x1="-311.3" y1="-254.52" x2="-345.73" y2="-314.16" gradientTransform="translate(139.76 -384.32) rotate(-45) scale(1 -1)" gradientUnits="userSpaceOnUse">
      <stop offset="0" stop-color="#db4730"/>
      <stop offset=".08" stop-color="#d7432d"/>
      <stop offset=".65" stop-color="#c03020"/>
      <stop offset="1" stop-color="#b82a1b"/>
    </linearGradient>
    <linearGradient id="_未命名漸層_134" data-name="未命名漸層 134" x1="1259.74" y1="-337.45" x2="1280.15" y2="-317.04" gradientTransform="translate(1237.77 -644.55) rotate(135) scale(1 -1)" gradientUnits="userSpaceOnUse">
      <stop offset="0" stop-color="#fad3ca"/>
      <stop offset=".11" stop-color="#f9cbc1" stop-opacity=".97"/>
      <stop offset=".28" stop-color="#f9b5aa" stop-opacity=".89"/>
      <stop offset=".5" stop-color="#f89384" stop-opacity=".77"/>
      <stop offset=".75" stop-color="#f66350" stop-opacity=".6"/>
      <stop offset="1" stop-color="#f52d16" stop-opacity=".4"/>
    </linearGradient>
  </defs>
  <g id="_選擇焊接加工方式" data-name="選擇焊接加工方式">
    <g>
      <g>
        <circle class="cls-5" cx="108.53" cy="49.04" r="41.68"/>
        <circle class="cls-6" cx="108.53" cy="49.04" r="34.43"/>
      </g>
      <g>
        <circle class="cls-4" cx="108.28" cy="49.29" r="41.67" transform="translate(-3.14 91) rotate(-45)"/>
        <path class="cls-1" d="m108.28,29.38c-16.09-.12-29.55,3.05-39.44,6.42,1.99-5.84,5.31-11.33,9.97-15.98,16.28-16.28,42.66-16.28,58.94,0,4.84,4.84,8.22,10.57,10.19,16.66-9.99-3.6-23.5-6.99-39.66-7.1Z"/>
      </g>
      <path class="cls-7" d="m82.91,85.17c33.24-.24,64.09-2.72,64.11-3.94.02-1.7-75.1-3.59-75.08-5.9.02-2.35,78.12-2.27,78.22-5.9.11-3.78-85.02-8.08-84.9-11.4.11-3.37,88-2.5,88.05-4.72.04-2.26-91.61-4.84-91.59-7.86.02-3.05,93.57-4.33,93.55-6.29-.01-1.93-90.36-2.1-90.41-4.72-.04-2.54,84.95-5.16,84.9-7.86-.04-2.56-76.19-2.31-76.26-5.11-.04-1.62,10.38-4.35,54.87-6.87"/>
      <g>
        <g>
          <path class="cls-2" d="m30.17,40.27c.07.91.13,1.81.2,2.72.07.92-.5,1.88-1.7,1.86-2.81-.05-5.61-.02-8.42-.02-1.87,0-3.74.01-5.61.01-1.22,0-2.18.54-2.96,1.42-.81.91-4.6,5.34-5.38,6.28-.25.3-.41.35-.73.07-1.68-1.48-3.39-2.95-5.1-4.4-.34-.29-.37-.46-.07-.8,1.43-1.62,5.78-6.81,7.24-8.4,2.06-2.24,4.69-3.16,7.71-3.09,2.61.06,5.22.05,7.83.06,1.73,0,3.46-.03,5.19-.02.99,0,1.56.58,1.64,1.57.07.91.14,1.81.2,2.72,0,0-.01,0-.02,0Z"/>
          <path class="cls-2" d="m30.08,44.44s-.03.03-.04.04c-.34.36-.82.55-1.38.54-2.08-.04-4.2-.03-6.24-.03-.72,0-1.45,0-2.17,0-1.04,0-2.08,0-3.12,0-.83,0-1.66,0-2.5,0-1.09,0-2.02.45-2.84,1.37-.81.92-4.64,5.39-5.38,6.28-.13.16-.28.3-.47.32-.2.02-.36-.11-.5-.23-1.62-1.43-3.34-2.91-5.1-4.4-.17-.14-.32-.3-.34-.5-.02-.21.12-.39.25-.54.58-.65,1.65-1.91,2.79-3.24,1.68-1.97,3.59-4.21,4.46-5.16,1.99-2.16,4.62-3.22,7.84-3.14,2.13.05,4.3.05,6.39.06h1.43c.8,0,1.6,0,2.4,0,.93,0,1.86-.01,2.79,0,1.06,0,1.72.64,1.8,1.73.05.63.1,1.26.14,1.9l.07.99h-.02s.19,2.56.19,2.56c.04.55-.13,1.08-.46,1.46Zm-18.62,1.81s.06-.06.08-.09c.87-.98,1.91-1.48,3.09-1.48.83,0,1.66,0,2.5,0,1.04,0,2.08,0,3.12,0,.72,0,1.45,0,2.17,0,2.05,0,4.17-.01,6.25.03.46,0,.85-.14,1.13-.43.29-.32.44-.77.41-1.25l-.21-2.89h.02s-.05-.66-.05-.66c-.05-.63-.09-1.26-.14-1.89-.08-.92-.58-1.41-1.47-1.42-.93,0-1.86,0-2.78,0-.8,0-1.6.01-2.4.01h-1.43c-2.1,0-4.27-.01-6.4-.06-3.16-.07-5.64.92-7.58,3.03-.87.94-2.77,3.18-4.45,5.15-1.14,1.33-2.21,2.59-2.79,3.25-.12.13-.17.23-.17.29,0,.06.07.15.22.27,1.76,1.49,3.48,2.97,5.1,4.4.12.1.2.15.26.15.07,0,.17-.11.24-.2.75-.91,4.33-5.09,5.31-6.2Z"/>
        </g>
        <g>
          <path class="cls-2" d="m31.41,40.69c-.08-1.39-.24-2.77-.17-4.17.03-.55.25-.8.75-.82,1.16-.05,2.32-.07,3.49-.1.53-.01.6.38.57.76-.06.87.37,1.07,1.15.99,1.07-.11,2.16-.16,3.23-.23.53-.04,1.05-.03,1.21.64.08.32.31.26.54.26,1.67-.01,2.12.13,3.28.04.63-.05,1.07.31,1.11.93.04.64-.3,1.03-1.01,1.12-2.31.31-2.74.66-3.24.79-.19.05-.39.06-.42.33-.08.74-.58.78-1.18.75-1.25-.08-2.49.14-3.74.19-.53.02-.46.37-.45.72.05,1.46-.02,1.55-1.47,1.63-.91.05-1.81.02-2.72.06-.54.02-.68-.27-.71-.73-.06-1.05-.15-2.1-.23-3.15Z"/>
          <path class="cls-2" d="m46.48,39.86c-.2.22-.51.32-.89.42-2.29.6-2.68.65-3.22.79l-.08.02c-.18.04-.21.06-.22.16-.1.97-.91.92-1.35.9-.79-.05-1.58.02-2.36.09-.45.04-.91.08-1.37.1-.09,0-.2.02-.25.07h0c-.06.07-.05.22-.04.37v.1c.06,1.55-.09,1.72-1.62,1.8-.49.03-.98.03-1.46.03-.42,0-.84,0-1.26.03-.73.03-.85-.46-.88-.89-.05-.78-.11-1.56-.17-2.34l-.06-.81c-.02-.38-.05-.76-.08-1.14-.07-.99-.15-2.02-.09-3.04.03-.63.33-.96.91-.98,1.08-.04,2.19-.07,3.25-.09h.24c.24-.01.43.06.56.19.15.16.21.4.19.74-.02.33.03.55.16.67.14.14.4.18.81.13.78-.08,1.58-.13,2.35-.18.3-.02.6-.04.89-.06.44-.03,1.18-.08,1.39.76.03.14.07.14.29.14h.09c.51,0,2.02.09,3.27.04.37-.02.68.06.92.27.22.2.35.48.37.82.02.36-.07.66-.26.88Zm-4.63,1.07c.1-.12.25-.15.36-.18l.07-.02c.48-.13.86-.17,3.26-.8.6-.16.9-.39.86-.94-.01-.25-.1-.45-.26-.58-.16-.14-.4-.21-.67-.19-.62.05-2.78-.05-3.29-.04h-.08c-.2,0-.53.02-.63-.39-.12-.49-.41-.55-1.04-.51-.3.02-.6.04-.9.06-.77.05-1.56.09-2.33.17-.32.03-.79.05-1.08-.23-.2-.2-.29-.5-.26-.94.02-.24-.02-.4-.1-.49-.06-.07-.16-.1-.31-.09h-.24c-1.06.03-2.17.05-3.25.1-.34.01-.56.13-.59.66-.05,1,.02,2.02.09,3,.03.38.06.77.08,1.15l.06.81c.06.78.12,1.56.17,2.34.03.46.15.59.53.57.42-.02.85-.02,1.27-.03.48,0,.97,0,1.45-.03,1.34-.07,1.36-.08,1.31-1.46v-.09c-.01-.21-.03-.45.13-.62.1-.11.26-.17.48-.18.45-.02.91-.06,1.35-.1.79-.07,1.6-.14,2.41-.09.64.04.94-.04,1-.59.01-.13.06-.22.11-.28Z"/>
        </g>
        <path class="cls-2" d="m46.81,36.54c-.22.16-.4.27-.56.39-.39.3-.73.37-.96.03-.23-.33-.04-.64.32-.93.62-.5,1.24-.99,1.86-1.48,4.11-3.25,8.23-6.51,12.35-9.76,3.04-2.39,6.08-4.77,9.13-7.16.44-.35.97-.77,1.32-.28.32.46-.21.82-.67,1.18-3.2,2.52-6.38,5.06-9.57,7.59-2.41,1.9-4.84,3.78-7.26,5.68-2.01,1.58-4,3.18-5.95,4.73Z"/>
        <path class="cls-2" d="m45.54,41.44c-.06-.24,0-.41.16-.56.29-.26.53-.09.76.05,1.18.72,2.35,1.45,3.52,2.18,3.29,2.03,3.32,2.07,6.61,4.1.11.07.21.13.32.2.29.19.41.47.2.76-.2.28-.52.29-.81.11-.58-.35-1.16-.71-1.73-1.06-3.91-2.41-4.55-2.84-8.46-5.26-.23-.14-.5-.26-.57-.51Z"/>
      </g>
      <g>
        <circle class="cls-3" cx="82.91" cy="85.17" r="5.5"/>
        <path class="cls-2" d="m82.91,80.68h0c1.96,0,3.73,1.32,4.3,3.2.34,1.15.22,2.36-.35,3.42-.57,1.06-1.51,1.83-2.66,2.17-.42.13-.86.19-1.29.19-1.96,0-3.73-1.32-4.3-3.2-.71-2.37.64-4.88,3.01-5.59.42-.13.86-.19,1.29-.19m0-1.01c-.52,0-1.06.08-1.58.23-2.91.87-4.56,3.94-3.68,6.85.72,2.38,2.9,3.92,5.26,3.92.52,0,1.06-.08,1.58-.23,2.91-.87,4.56-3.94,3.68-6.85-.72-2.38-2.9-3.92-5.26-3.92h0Z"/>
      </g>
      <g>
        <circle class="cls-3" cx="138.05" cy="81.85" r="5.5"/>
        <path class="cls-2" d="m138.05,77.36h0c1.96,0,3.73,1.32,4.3,3.2.34,1.15.22,2.36-.35,3.42-.57,1.06-1.51,1.83-2.66,2.17-.42.13-.86.19-1.29.19-1.96,0-3.73-1.32-4.3-3.2-.34-1.15-.22-2.36.35-3.42.57-1.06,1.51-1.83,2.66-2.17.42-.13.86-.19,1.29-.19m0-1.01c-.52,0-1.06.08-1.58.23-2.91.87-4.56,3.94-3.68,6.85.72,2.38,2.9,3.92,5.26,3.92.52,0,1.06-.08,1.58-.23,2.91-.87,4.56-3.94,3.68-6.85-.72-2.38-2.9-3.92-5.26-3.92h0Z"/>
      </g>
      <g>
        <circle class="cls-3" cx="68.87" cy="61.26" r="5.5"/>
        <path class="cls-2" d="m68.87,56.77h0c1.96,0,3.73,1.32,4.3,3.2.34,1.15.22,2.36-.35,3.42-.57,1.06-1.51,1.83-2.66,2.17-.42.13-.86.19-1.29.19-1.96,0-3.73-1.32-4.3-3.2-.34-1.15-.22-2.36.35-3.42.57-1.06,1.51-1.83,2.66-2.17.42-.13.86-.19,1.29-.19m0-1.01c-.52,0-1.06.08-1.58.23-2.91.87-4.56,3.94-3.68,6.85.72,2.38,2.9,3.92,5.26,3.92.52,0,1.06-.08,1.58-.23,2.91-.87,4.56-3.94,3.68-6.85-.72-2.38-2.9-3.92-5.26-3.92h0Z"/>
      </g>
      <g>
        <circle class="cls-3" cx="146.78" cy="42.48" r="5.5"/>
        <path class="cls-2" d="m146.78,37.99h0c1.96,0,3.73,1.32,4.3,3.2.34,1.15.22,2.36-.35,3.42-.57,1.06-1.51,1.83-2.66,2.17-.42.13-.86.19-1.29.19-1.96,0-3.73-1.32-4.3-3.2-.34-1.15-.22-2.36.35-3.42.57-1.06,1.51-1.83,2.66-2.17.42-.13.86-.19,1.29-.19m0-1.01c-.52,0-1.06.08-1.58.23-2.91.87-4.56,3.94-3.68,6.85.72,2.38,2.9,3.92,5.26,3.92.52,0,1.06-.08,1.58-.23,2.91-.87,4.56-3.94,3.68-6.85-.72-2.38-2.9-3.92-5.26-3.92h0Z"/>
      </g>
      <g>
        <circle class="cls-3" cx="81.36" cy="17.99" r="5.5"/>
        <path class="cls-2" d="m81.37,13.49h0c1.96,0,3.73,1.32,4.3,3.2.34,1.15.22,2.36-.35,3.42-.57,1.06-1.51,1.83-2.66,2.17-.42.13-.86.19-1.29.19-1.96,0-3.73-1.32-4.3-3.2-.34-1.15-.22-2.36.35-3.42.57-1.06,1.51-1.83,2.66-2.17.42-.13.86-.19,1.29-.19m0-1.01c-.52,0-1.06.08-1.58.23-2.91.87-4.56,3.94-3.68,6.85.72,2.38,2.9,3.92,5.26,3.92.52,0,1.06-.08,1.58-.23,2.91-.87,4.56-3.94,3.68-6.85-.72-2.38-2.9-3.92-5.26-3.92h0Z"/>
      </g>
      <g>
        <circle class="cls-3" cx="128.59" cy="14.56" r="5.5"/>
        <path class="cls-2" d="m124.17,15.34h0c-.34-1.93.65-3.9,2.4-4.79,1.07-.54,2.29-.63,3.43-.25,1.14.38,2.06,1.17,2.6,2.24.2.39.34.81.41,1.24.34,1.93-.65,3.9-2.4,4.79-1.07.54-2.29.63-3.43.25-1.14-.38-2.06-1.17-2.6-2.24-.2-.39-.34-.81-.41-1.24m-.99.18c.09.52.26,1.03.51,1.52,1.37,2.71,4.67,3.8,7.38,2.43,2.22-1.12,3.35-3.54,2.94-5.87-.09-.52-.26-1.03-.51-1.52-1.37-2.71-4.67-3.8-7.38-2.43-2.22,1.12-3.35,3.54-2.94,5.87h0Z"/>
      </g>
      <g>
        <polygon class="cls-3" points="129.48 12.84 139.29 11.18 136.74 8.44 142.51 3.05 141.32 1.78 140.13 .5 134.36 5.89 131.81 3.16 129.48 12.84"/>
        <path class="cls-2" d="m143.01,2.97s0,.07,0,.11c0,.13-.06.26-.16.35l-5.4,5.04,2.21,2.37c.13.14.17.33.11.51-.06.18-.21.3-.39.34l-9.82,1.66c-.17.03-.34-.03-.45-.15-.12-.12-.16-.3-.12-.46l2.33-9.68c.04-.18.18-.32.36-.37.18-.05.37,0,.5.14l2.21,2.37,5.4-5.04c.1-.09.23-.14.36-.14.13,0,.26.06.35.16l2.38,2.55c.07.07.11.16.13.26Zm-6.77,5.56s0-.07,0-.11c0-.13.06-.26.16-.35l5.4-5.04-1.69-1.81-5.4,5.04c-.2.19-.52.18-.71-.02l-1.91-2.05-1.94,8.03,8.14-1.38-1.91-2.05c-.07-.07-.11-.16-.13-.26Z"/>
      </g>
      <path class="cls-2" d="m27.05,32.63l-3.46,4.69c-.8,1.09-2.84,1.09-3.65,0l-3.46-4.69c-.28-.38-.77-.63-1.32-.77-1.05-.27-1.8-1.02-1.8-1.91v-13.85c0-2,2.11-3.61,4.72-3.61h7.36c2.61,0,4.72,1.62,4.72,3.61v13.85c0,.89-.75,1.64-1.8,1.91-.55.14-1.04.38-1.32.77Z"/>
    </g>
  </g>
</svg>