<svg width="129" height="144" viewBox="0 0 129 144" fill="none" xmlns="http://www.w3.org/2000/svg">
<path d="M108.404 30.6369C106.166 19.5497 98.4105 9.8992 89.3989 7.68176C83.0464 6.10977 75.111 4.90215 67.4712 5.00626C59.8313 4.90215 51.896 6.10977 45.5435 7.67135C36.5213 9.88879 28.7653 19.5497 26.5388 30.6265C25.4308 36.1441 25.3675 49.532 27.5096 61.1502C30.707 78.4837 33.9782 88.6443 39.1277 93.9537C44.2772 99.2631 52.9723 103.594 67.4712 103.677C81.97 103.604 90.6546 99.2631 95.8147 93.9537C100.964 88.6443 104.235 78.4733 107.433 61.1502C109.575 49.532 109.512 36.1441 108.404 30.6265V30.6369Z" fill="white"/>
<path d="M68.4297 6.05781C74.8771 6.05781 82.2321 6.99476 89.1439 8.69167C93.2487 9.70149 97.3219 12.4707 100.625 16.4891C103.917 20.4972 106.312 25.5983 107.368 30.8348C108.37 35.8215 108.592 49.0636 106.397 60.9629C103.062 79.0251 99.77 88.3737 95.0531 93.2355C89.07 99.4089 79.784 102.563 67.4905 102.636C55.176 102.574 45.9005 99.4089 39.9174 93.2355C35.2005 88.3737 31.9082 79.0251 28.5736 60.9629C26.3788 49.0636 26.5898 35.8111 27.6028 30.8348C28.6581 25.5983 31.0534 20.4972 34.3457 16.4891C37.6381 12.4707 41.7218 9.70149 45.8266 8.69167C52.7384 6.99476 60.0934 6.05781 66.5408 6.05781C66.8574 6.05781 67.1634 6.05781 67.48 6.05781H67.4905H67.5011C67.8176 6.05781 68.1237 6.05781 68.4402 6.05781M68.4297 5.00635C68.1131 5.00635 67.7965 5.00635 67.4694 5.00635C67.1528 5.00635 66.8363 5.00635 66.5197 5.00635C59.1753 5.00635 51.641 6.17233 45.5523 7.67144C36.5301 9.88888 28.7741 19.5498 26.5476 30.6266C25.4396 36.1442 25.3763 49.5321 27.5184 61.1502C30.7157 78.4838 33.987 88.6444 39.1365 93.9538C44.286 99.2631 52.9811 103.594 67.48 103.677C81.9788 103.604 90.6634 99.2631 95.8235 93.9538C100.973 88.6444 104.244 78.4733 107.442 61.1502C109.584 49.5321 109.52 36.1442 108.412 30.6266C106.175 19.5394 98.4193 9.88888 89.4077 7.67144C83.3084 6.17233 75.7741 5.00635 68.4297 5.00635Z" fill="black"/>
<path d="M68.4297 6.05781C74.8771 6.05781 82.2321 6.99476 89.1439 8.69167C93.2487 9.70149 97.3219 12.4707 100.625 16.4891C103.917 20.4972 106.312 25.5983 107.368 30.8348C108.37 35.8215 108.592 49.0636 106.397 60.9629C103.062 79.0251 99.77 88.3737 95.0531 93.2355C89.07 99.4089 79.784 102.563 67.4905 102.636C55.176 102.574 45.9005 99.4089 39.9174 93.2355C35.2005 88.3737 31.9082 79.0251 28.5736 60.9629C26.3788 49.0636 26.5898 35.8111 27.6028 30.8348C28.6581 25.5983 31.0534 20.4972 34.3457 16.4891C37.6381 12.4707 41.7218 9.70149 45.8266 8.69167C52.7384 6.99476 60.0934 6.05781 66.5408 6.05781C66.8574 6.05781 67.1634 6.05781 67.48 6.05781H67.4905H67.5011C67.8176 6.05781 68.1237 6.05781 68.4402 6.05781M68.4297 5.00635C68.1131 5.00635 67.7965 5.00635 67.4694 5.00635C67.1528 5.00635 66.8363 5.00635 66.5197 5.00635C59.1753 5.00635 51.641 6.17233 45.5523 7.67144C36.5301 9.88888 28.7741 19.5498 26.5476 30.6266C25.4396 36.1442 25.3763 49.5321 27.5184 61.1502C30.7157 78.4838 33.987 88.6444 39.1365 93.9538C44.286 99.2631 52.9811 103.594 67.48 103.677C81.9788 103.604 90.6634 99.2631 95.8235 93.9538C100.973 88.6444 104.244 78.4733 107.442 61.1502C109.584 49.5321 109.52 36.1442 108.412 30.6266C106.175 19.5394 98.4193 9.88888 89.4077 7.67144C83.3084 6.17233 75.7741 5.00635 68.4297 5.00635Z" stroke="black" stroke-width="0.1"/>
<path d="M34.0086 59.4014C36.1085 63.2324 39.2531 66.6263 45.5739 68.1046C51.1244 69.4059 59.3552 69.8119 67.4805 69.6557C75.6058 69.8119 83.8366 69.3955 89.3871 68.1046C95.7079 66.6263 98.842 63.2324 100.952 59.4014C103.095 55.487 105.3 46.409 105.237 44.4727C105.173 42.6509 103.96 41.3704 100.784 40.0482C93.5025 37.0292 41.4796 37.0292 34.1986 40.0482C31.0118 41.3704 29.8088 42.6509 29.7455 44.4727C29.6822 46.409 31.877 55.487 34.0297 59.4014H34.0086Z" fill="#363B4E"/>
<path d="M30.832 45.7948C30.9798 46.4923 34.251 64.971 45.9957 67.2925C55.8199 69.2393 79.1194 69.2393 88.9436 67.2925C100.688 64.9605 103.96 46.4819 104.107 45.7948C104.593 43.4524 103.675 42.5779 100.108 41.1309C92.0565 37.8516 42.8722 37.8516 34.8314 41.1309C31.2647 42.5883 30.3466 43.4628 30.832 45.7948Z" fill="url(#paint0_linear_422_15181)"/>
<path d="M94.0582 133.2L66.7066 119.291L47.5243 125.577C47.2394 125.661 46.9439 125.505 46.8595 125.223C46.7751 124.942 46.9334 124.651 47.2183 124.568L66.8122 118.157L67.0021 118.25L93.5412 131.742L110.478 93.8793C110.594 93.6086 110.91 93.4941 111.174 93.6086C111.438 93.7231 111.565 94.0354 111.448 94.2957L94.0477 133.179L94.0582 133.2Z" fill="black" stroke="black" stroke-width="0.4"/>
<path d="M66.7579 125.258C69.9632 125.258 72.5616 122.695 72.5616 119.532C72.5616 116.37 69.9632 113.807 66.7579 113.807C63.5525 113.807 60.9541 116.37 60.9541 119.532C60.9541 122.695 63.5525 125.258 66.7579 125.258Z" fill="white"/>
<path d="M66.7583 114.858C68.8266 114.858 70.6943 116.232 71.2958 118.189C71.6546 119.387 71.528 120.646 70.9265 121.75C70.325 122.853 69.3331 123.655 68.1196 124.009C67.6764 124.144 67.2121 124.207 66.7583 124.207C64.6901 124.207 62.8223 122.833 62.2208 120.875C61.8621 119.678 61.9887 118.418 62.5902 117.315C63.1916 116.211 64.1836 115.41 65.3971 115.056C65.8403 114.921 66.3046 114.858 66.7583 114.858ZM66.7583 113.807C66.2096 113.807 65.6398 113.89 65.0911 114.046C62.0203 114.952 60.2792 118.148 61.2078 121.177C61.9676 123.655 64.268 125.258 66.7583 125.258C67.307 125.258 67.8769 125.175 68.4256 125.019C71.4963 124.113 73.2374 120.917 72.3088 117.888C71.5491 115.41 69.2487 113.807 66.7583 113.807Z" fill="black"/>
<path d="M93.8047 139C97.0101 139 99.6085 136.436 99.6085 133.274C99.6085 130.112 97.0101 127.548 93.8047 127.548C90.5994 127.548 88.001 130.112 88.001 133.274C88.001 136.436 90.5994 139 93.8047 139Z" fill="white"/>
<path d="M93.8052 128.6C95.8734 128.6 97.7412 129.974 98.3427 131.931C98.7015 133.128 98.5748 134.388 97.9734 135.492C97.3719 136.595 96.38 137.397 95.1664 137.751C94.7232 137.886 94.2589 137.948 93.8052 137.948C91.7369 137.948 89.8692 136.574 89.2677 134.617C88.5185 132.15 89.9431 129.537 92.4439 128.798C92.8871 128.662 93.3514 128.6 93.8052 128.6ZM93.8052 127.548C93.2565 127.548 92.6867 127.632 92.1379 127.788C89.0672 128.694 87.3261 131.89 88.2547 134.919C89.0144 137.397 91.3149 139 93.8052 139C94.3539 139 94.9237 138.917 95.4725 138.76C98.5432 137.855 100.284 134.659 99.3557 131.629C98.5959 129.152 96.2955 127.548 93.8052 127.548Z" fill="black"/>
<path d="M110.978 100.627C114.183 100.627 116.781 98.0636 116.781 94.9013C116.781 91.7391 114.183 89.1755 110.978 89.1755C107.772 89.1755 105.174 91.7391 105.174 94.9013C105.174 98.0636 107.772 100.627 110.978 100.627Z" fill="white"/>
<path d="M110.978 90.227C113.046 90.227 114.914 91.6012 115.516 93.5584C115.874 94.7556 115.748 96.0152 115.146 97.1188C114.545 98.2223 113.553 99.0239 112.339 99.3778C111.896 99.5132 111.432 99.5756 110.978 99.5756C108.91 99.5756 107.042 98.2015 106.441 96.2443C106.082 95.0471 106.208 93.7874 106.81 92.6839C107.411 91.5804 108.403 90.7788 109.617 90.4248C110.06 90.2895 110.524 90.227 110.978 90.227ZM110.978 89.1755C110.429 89.1755 109.859 89.2588 109.311 89.415C106.24 90.3207 104.499 93.5167 105.428 96.5462C106.187 99.0239 108.488 100.627 110.978 100.627C111.527 100.627 112.097 100.544 112.645 100.388C115.716 99.482 117.457 96.2859 116.529 93.2565C115.769 90.7788 113.468 89.1755 110.978 89.1755Z" fill="black"/>
<path d="M20.9439 135.607C20.8806 135.607 20.8278 135.607 20.7645 135.576C20.4901 135.482 20.3424 135.18 20.4374 134.909C20.8278 133.806 20.4585 132.598 19.4982 131.901C19.2661 131.724 19.2133 131.401 19.3822 131.162C19.5615 130.933 19.8887 130.881 20.1314 131.047C21.461 132.015 21.9886 133.702 21.4399 135.253C21.366 135.472 21.1549 135.607 20.9333 135.607H20.9439Z" fill="black"/>
<path d="M23.0142 134.993C22.9509 134.993 22.8981 134.993 22.8348 134.961C22.5605 134.868 22.4127 134.566 22.5077 134.295C22.8981 133.192 22.5288 131.984 21.5685 131.286C21.3364 131.11 21.2836 130.787 21.4525 130.547C21.6319 130.318 21.959 130.266 22.2017 130.433C23.5313 131.401 24.0589 133.088 23.5102 134.639C23.4363 134.857 23.2253 134.993 23.0037 134.993H23.0142Z" fill="black"/>
<path d="M25.0923 134.379C25.029 134.379 24.9763 134.379 24.9129 134.347C24.6386 134.254 24.4908 133.952 24.5858 133.681C24.9763 132.578 24.6069 131.37 23.6467 130.672C23.4145 130.495 23.3618 130.173 23.5306 129.933C23.71 129.704 24.0371 129.652 24.2798 129.819C25.6094 130.787 26.137 132.473 25.5883 134.025C25.5144 134.243 25.3034 134.379 25.0818 134.379H25.0923Z" fill="black"/>
<path d="M27.1578 133.763C27.0944 133.763 27.0417 133.763 26.9784 133.732C26.704 133.638 26.5563 133.337 26.6512 133.066C27.0417 131.962 26.6724 130.755 25.7121 130.057C25.4799 129.88 25.4272 129.558 25.596 129.318C25.7754 129.089 26.1025 129.037 26.3452 129.204C27.6748 130.172 28.2024 131.858 27.6537 133.409C27.5799 133.628 27.3688 133.763 27.1472 133.763H27.1578Z" fill="black"/>
<path d="M29.2359 133.149C29.1726 133.149 29.1198 133.149 29.0565 133.118C28.7821 133.024 28.6344 132.722 28.7294 132.452C29.1198 131.348 28.7505 130.14 27.7902 129.443C27.5581 129.266 27.5053 128.943 27.6741 128.704C27.8535 128.475 28.1807 128.423 28.4234 128.589C29.7529 129.557 30.2806 131.244 29.7318 132.795C29.658 133.014 29.4469 133.149 29.2253 133.149H29.2359Z" fill="black"/>
<path d="M31.315 132.535C31.2517 132.535 31.1989 132.535 31.1356 132.504C30.8612 132.41 30.7135 132.108 30.8085 131.837C31.1989 130.734 30.8296 129.526 29.8693 128.829C29.6372 128.652 29.5844 128.329 29.7532 128.09C29.9326 127.861 30.2598 127.808 30.5025 127.975C31.832 128.943 32.3597 130.63 31.8109 132.181C31.7371 132.4 31.526 132.535 31.3044 132.535H31.315Z" fill="black"/>
<path d="M33.3843 131.921C33.321 131.921 33.2682 131.921 33.2049 131.89C32.9306 131.796 32.7828 131.494 32.8778 131.223C33.2682 130.12 32.8989 128.912 31.9387 128.215C31.7065 128.038 31.6537 127.715 31.8226 127.476C32.002 127.247 32.3291 127.194 32.5718 127.361C33.9014 128.329 34.429 130.016 33.8803 131.567C33.8064 131.786 33.5954 131.921 33.3738 131.921H33.3843Z" fill="black"/>
<path d="M35.4634 131.306C35.4001 131.306 35.3474 131.306 35.284 131.275C35.0097 131.181 34.8619 130.88 34.9569 130.609C35.3473 129.505 34.978 128.298 34.0178 127.6C33.7856 127.423 33.7328 127.101 33.9017 126.861C34.0705 126.622 34.4082 126.58 34.6509 126.747C35.9805 127.715 36.5081 129.401 35.9594 130.952C35.8855 131.171 35.6745 131.306 35.4529 131.306H35.4634Z" fill="black"/>
<path d="M37.5328 130.682C37.4694 130.682 37.4167 130.682 37.3534 130.651C37.079 130.557 36.9313 130.255 37.0262 129.984C37.4167 128.881 37.0474 127.673 36.0871 126.976C35.8549 126.799 35.8022 126.476 35.971 126.237C36.1504 126.008 36.4775 125.955 36.7202 126.122C38.0498 127.09 38.5774 128.777 38.0287 130.328C37.9549 130.547 37.7438 130.682 37.5222 130.682H37.5328Z" fill="black"/>
<path d="M39.6119 130.068C39.5485 130.068 39.4958 130.068 39.4325 130.037C39.1581 129.943 39.0104 129.641 39.1054 129.37C39.4958 128.267 39.1265 127.059 38.1662 126.362C37.934 126.185 37.8813 125.862 38.0501 125.623C38.2295 125.394 38.5566 125.341 38.7993 125.508C40.1289 126.476 40.6565 128.163 40.1078 129.714C40.034 129.932 39.8229 130.068 39.6013 130.068H39.6119Z" fill="black"/>
<path d="M41.69 129.454C41.6267 129.454 41.5739 129.454 41.5106 129.422C41.2362 129.329 41.0885 129.027 41.1835 128.756C41.5739 127.653 41.2046 126.445 40.2443 125.747C40.0122 125.57 39.9594 125.248 40.1282 125.008C40.3076 124.779 40.6348 124.727 40.8775 124.894C42.2071 125.862 42.7347 127.548 42.1859 129.1C42.1121 129.318 41.901 129.454 41.6794 129.454H41.69Z" fill="black"/>
<path d="M43.7603 128.839C43.697 128.839 43.6442 128.839 43.5809 128.808C43.3065 128.714 43.1588 128.412 43.2538 128.142C43.6442 127.038 43.2749 125.831 42.3146 125.133C42.0825 124.956 42.0297 124.633 42.1986 124.394C42.3779 124.165 42.7051 124.113 42.9478 124.28C44.2774 125.248 44.805 126.934 44.2563 128.485C44.1824 128.704 43.9713 128.839 43.7497 128.839H43.7603Z" fill="black"/>
<path d="M45.8384 128.225C45.7751 128.225 45.7224 128.225 45.659 128.194C45.3847 128.1 45.2369 127.798 45.3319 127.528C45.7223 126.424 45.353 125.217 44.3928 124.519C44.1606 124.342 44.1078 124.019 44.2767 123.78C44.4561 123.551 44.7832 123.499 45.0259 123.665C46.3555 124.634 46.8831 126.32 46.3344 127.871C46.2605 128.09 46.0495 128.225 45.8279 128.225H45.8384Z" fill="black"/>
<path d="M112.593 96.1191L112.52 106.488L115.833 104.364L120.37 111.256L121.911 110.267L123.452 109.288L118.914 102.386L122.228 100.273L112.593 96.1191Z" fill="white"/>
<path d="M120.369 111.787C120.369 111.787 120.295 111.787 120.263 111.777C120.126 111.746 119.999 111.662 119.926 111.548L115.673 105.093L112.813 106.926C112.644 107.03 112.444 107.04 112.265 106.946C112.096 106.853 111.99 106.676 111.99 106.478L112.064 96.1091C112.064 95.9322 112.159 95.7656 112.307 95.6719C112.455 95.5782 112.644 95.5574 112.813 95.6302L122.448 99.7736C122.627 99.8465 122.754 100.023 122.764 100.211C122.785 100.398 122.69 100.586 122.521 100.69L119.662 102.522L123.914 108.977C123.988 109.091 124.02 109.237 123.988 109.372C123.957 109.507 123.872 109.622 123.756 109.705L120.664 111.683C120.58 111.735 120.474 111.767 120.379 111.767L120.369 111.787ZM115.831 103.844C115.831 103.844 115.905 103.844 115.937 103.855C116.074 103.886 116.201 103.969 116.274 104.084L120.527 110.538L122.722 109.133L118.469 102.678C118.311 102.439 118.374 102.106 118.628 101.949L121.107 100.357L113.119 96.9212L113.056 105.52L115.536 103.927C115.62 103.875 115.726 103.844 115.821 103.844H115.831Z" fill="black"/>
<path d="M32.2477 106.873C31.5724 107.55 30.9076 108.227 30.2322 108.903C29.5463 109.59 28.3961 109.809 27.573 108.851C25.6525 106.623 23.6687 104.458 21.706 102.261C20.3975 100.804 19.0784 99.3463 17.7699 97.8889C16.9152 96.9415 15.8178 96.5667 14.5726 96.5563C13.2852 96.5563 7.13322 96.65 5.84584 96.6917C5.42375 96.7021 5.28657 96.6188 5.28657 96.1607C5.28657 93.8184 5.25491 91.4864 5.20215 89.144C5.20215 88.686 5.29712 88.5402 5.79308 88.5402C8.07238 88.5402 15.2163 88.3528 17.4956 88.4049C20.714 88.4673 23.2677 89.8832 25.3254 92.288C27.0982 94.3597 28.9237 96.3898 30.7493 98.4406C31.9522 99.794 33.1869 101.116 34.3898 102.48C35.0757 103.261 35.023 104.094 34.2948 104.843C33.6301 105.53 32.9547 106.196 32.2899 106.873C32.2899 106.873 32.2899 106.873 32.2794 106.863L32.2477 106.873Z" fill="black"/>
<path d="M28.8799 109.684C28.8799 109.684 28.8377 109.684 28.8165 109.684C28.2889 109.663 27.8141 109.424 27.4342 108.976C26.0096 107.331 24.5218 105.676 23.0866 104.083C22.5801 103.521 22.0736 102.959 21.5671 102.386C20.839 101.574 20.1109 100.762 19.3828 99.9608C18.8024 99.3153 18.2115 98.6699 17.6311 98.014C16.8713 97.1603 15.8689 96.7439 14.5604 96.7439C13.2625 96.7439 7.04715 96.8376 5.83363 96.8792C5.62259 96.8792 5.40099 96.8792 5.25326 96.7335C5.10552 96.5878 5.08442 96.3691 5.08442 96.1817C5.08442 93.9331 5.05276 91.5803 5 89.1755C5 88.9464 5.01055 88.7174 5.16884 88.5612C5.32712 88.4051 5.55927 88.3843 5.77032 88.3843C6.68837 88.3843 8.44005 88.353 10.2762 88.3218C13.0092 88.2698 16.1116 88.2177 17.4728 88.2489C20.5646 88.3114 23.2449 89.6439 25.4293 92.1945C26.8749 93.8914 28.3839 95.5779 29.8507 97.2228L30.8531 98.3367C31.4124 98.9614 31.9717 99.586 32.5415 100.2C33.1958 100.919 33.85 101.637 34.4937 102.376C35.2218 103.209 35.1901 104.156 34.3882 104.979C33.9239 105.458 33.4596 105.926 32.9847 106.394L32.246 107.134H32.2355L30.3466 109.028C29.9351 109.445 29.4075 109.674 28.8693 109.674L28.8799 109.684ZM14.4443 96.4004C14.4443 96.4004 14.5287 96.4004 14.5709 96.4004C15.9533 96.4004 17.0824 96.8793 17.9055 97.785C18.4858 98.4304 19.0662 99.0759 19.6572 99.7317C20.3853 100.544 21.1134 101.345 21.8415 102.157C22.348 102.72 22.8545 103.282 23.361 103.854C24.7961 105.447 26.284 107.102 27.7086 108.747C28.0251 109.112 28.4156 109.309 28.8377 109.33C29.2914 109.33 29.7557 109.143 30.1039 108.789L32.2355 106.623H32.246L32.7315 106.145C33.1958 105.676 33.6706 105.208 34.1244 104.729C34.7997 104.031 34.8314 103.303 34.2193 102.605C33.5756 101.876 32.9214 101.158 32.2672 100.44C31.6973 99.815 31.1381 99.2008 30.5788 98.5762L29.5763 97.4622C28.1095 95.8278 26.6006 94.1309 25.1549 92.434C23.0128 89.925 20.4908 88.6653 17.4623 88.6133C16.1116 88.5821 13.0092 88.6445 10.2867 88.6862C8.44005 88.7174 6.69892 88.7486 5.77032 88.7486C5.58038 88.7486 5.47485 88.7695 5.42209 88.8215C5.37988 88.8736 5.35878 88.9777 5.35878 89.1755C5.41154 91.5803 5.4432 93.9435 5.4432 96.1922C5.4432 96.3587 5.4643 96.4524 5.50651 96.4941C5.55927 96.5461 5.71756 96.5461 5.82308 96.5461C7.06825 96.5045 12.8826 96.4108 14.4338 96.4108L14.4443 96.4004Z" fill="black"/>
<path d="M32.7812 108.133C33.8258 107.112 34.7967 106.03 35.9574 105.124C36.4112 104.77 36.7594 104.77 37.1287 105.145C37.9835 106.019 38.8065 106.904 39.6402 107.8C40.02 108.206 39.7562 108.528 39.4397 108.768C38.7116 109.319 38.8487 109.788 39.4608 110.34C40.305 111.1 41.0964 111.912 41.8984 112.703C42.2993 113.098 42.6581 113.504 42.2466 114.087C42.0461 114.369 42.2466 114.514 42.4154 114.691C43.5867 115.982 44.7158 117.336 45.961 118.564C46.8263 119.428 47.5544 120.407 48.4408 121.25C48.9156 121.708 48.9473 122.301 48.483 122.759C48.0081 123.228 47.4594 123.228 46.8896 122.739C45.0324 121.146 43.2174 119.511 41.4974 117.783C41.1175 117.398 40.6848 117.096 40.2311 116.794C40.0517 116.68 39.9145 116.524 39.6718 116.69C39.0387 117.138 38.6482 116.773 38.2578 116.284C37.4453 115.253 36.4006 114.431 35.4931 113.494C35.1027 113.098 34.8811 113.39 34.6173 113.64C33.4987 114.691 33.3721 114.691 32.3063 113.619C31.6415 112.942 31.0189 112.224 30.3541 111.537C29.9532 111.131 30.0903 110.819 30.4386 110.485C31.2194 109.715 31.9897 108.924 32.7706 108.133H32.7812Z" fill="black"/>
<path d="M47.736 123.28C47.4194 123.28 47.1028 123.145 46.7863 122.874C44.6653 121.052 42.9452 119.48 41.3835 117.908C41.0353 117.554 40.6343 117.263 40.1489 116.94L40.075 116.888C39.9167 116.773 39.8851 116.763 39.7901 116.836C38.9565 117.429 38.4183 116.763 38.1334 116.399C37.6269 115.753 37.0043 115.181 36.4134 114.618C36.0651 114.296 35.7169 113.962 35.3792 113.619C35.3159 113.556 35.2209 113.473 35.1471 113.473C35.0521 113.473 34.9466 113.577 34.82 113.692L34.7461 113.765C33.5537 114.879 33.3215 114.879 32.1819 113.744C31.8231 113.379 31.4749 112.994 31.1372 112.63C30.8417 112.307 30.5463 111.984 30.2403 111.662C29.7021 111.11 30.0081 110.683 30.3247 110.36C30.9051 109.788 31.4854 109.205 32.0553 108.622L32.6567 108.018C32.9416 107.737 33.2266 107.456 33.5115 107.164C34.2501 106.425 34.9993 105.655 35.8541 104.999C36.3817 104.583 36.8354 104.593 37.2681 105.03C38.0595 105.842 38.8509 106.686 39.6107 107.508L39.7795 107.685C39.9484 107.872 40.0328 108.06 40.0117 108.258C39.9906 108.487 39.8429 108.705 39.5579 108.913C39.2836 109.122 39.1464 109.319 39.1358 109.496C39.1358 109.694 39.273 109.934 39.5896 110.215C40.2016 110.766 40.7926 111.36 41.3729 111.922C41.5945 112.141 41.8161 112.359 42.0377 112.578C42.3754 112.901 42.9241 113.452 42.4071 114.192C42.3226 114.306 42.3437 114.348 42.502 114.514L42.5653 114.577C42.9241 114.972 43.2723 115.368 43.6311 115.774C44.4225 116.669 45.2456 117.596 46.1004 118.449C46.5225 118.866 46.9023 119.303 47.2822 119.74C47.6938 120.209 48.1159 120.698 48.5696 121.135C48.844 121.406 48.9917 121.718 49.0022 122.041C49.0022 122.353 48.8756 122.645 48.6224 122.895C48.348 123.165 48.0525 123.301 47.7465 123.301L47.736 123.28ZM39.8956 116.44C40.0539 116.44 40.1911 116.534 40.286 116.607L40.3494 116.648C40.782 116.94 41.2463 117.263 41.6367 117.658C43.1879 119.22 44.8974 120.792 47.0184 122.603C47.5144 123.03 47.9576 123.03 48.3691 122.624C48.5591 122.447 48.654 122.239 48.654 122.02C48.654 121.791 48.538 121.562 48.3375 121.364C47.8732 120.917 47.4405 120.427 47.0184 119.949C46.6491 119.522 46.2587 119.084 45.8577 118.678C44.9924 117.814 44.1693 116.888 43.3673 115.993C43.0191 115.597 42.6603 115.191 42.3015 114.806L42.2488 114.743C42.101 114.598 41.8689 114.348 42.1221 113.983C42.4282 113.556 42.2699 113.286 41.795 112.828C41.5734 112.609 41.3518 112.39 41.1302 112.172C40.5604 111.61 39.9695 111.016 39.3574 110.475C39.1042 110.246 38.7665 109.892 38.7876 109.476C38.7982 109.184 38.9881 108.903 39.3469 108.632C39.5474 108.476 39.6529 108.341 39.6635 108.216C39.6635 108.122 39.6213 108.028 39.5263 107.914L39.3574 107.737C38.5977 106.925 37.8063 106.082 37.0148 105.27C36.7616 105.009 36.5189 104.926 36.0862 105.27C35.2526 105.915 34.5034 106.675 33.7753 107.414C33.4904 107.695 33.2055 107.987 32.9205 108.268L32.3296 108.872C31.7598 109.455 31.1794 110.038 30.599 110.621C30.2614 110.954 30.2403 111.152 30.5146 111.433C30.8206 111.755 31.1266 112.078 31.4221 112.401C31.7598 112.765 32.108 113.15 32.4562 113.504C33.4482 114.504 33.4693 114.504 34.5245 113.525L34.5984 113.463C34.7566 113.307 34.936 113.13 35.1787 113.14C35.337 113.14 35.4953 113.223 35.6641 113.39C35.9913 113.733 36.35 114.056 36.6877 114.379C37.2892 114.941 37.9118 115.524 38.4394 116.19C38.8615 116.721 39.1253 116.898 39.6107 116.555C39.7162 116.482 39.8217 116.451 39.9167 116.451L39.8956 116.44Z" fill="black"/>
<path d="M42.8081 122.011C43.0192 122.104 43.1775 122.187 43.3463 122.26C43.7367 122.417 43.9267 122.666 43.7262 123.093C43.5362 123.499 43.1986 123.53 42.8187 123.406C42.175 123.176 41.5208 122.937 40.8771 122.708C36.6139 121.146 32.3403 119.585 28.0877 118.002C24.9431 116.847 21.8091 115.66 18.675 114.494C18.2213 114.328 17.662 114.13 17.9575 113.516C18.2318 112.943 18.7278 113.182 19.2026 113.359C22.5161 114.577 25.8295 115.775 29.1429 116.993C31.6438 117.909 34.1236 118.867 36.6245 119.783C38.7033 120.553 40.7821 121.292 42.8081 122.031V122.011Z" fill="black"/>
<path d="M50.1843 119.189C50.0577 119.429 49.8888 119.533 49.6461 119.533C49.224 119.533 49.1502 119.221 49.0763 118.95C48.6542 117.513 48.2532 116.077 47.8311 114.65C46.6704 110.632 46.6704 110.58 45.5202 106.561C45.478 106.426 45.4463 106.301 45.4147 106.166C45.3197 105.801 45.4252 105.489 45.8051 105.395C46.1744 105.312 46.4382 105.52 46.5437 105.885C46.7548 106.582 46.9553 107.29 47.1558 107.998C48.5276 112.777 48.7386 113.578 50.1104 118.357C50.1948 118.638 50.3215 118.919 50.1948 119.189H50.1843Z" fill="black"/>
<defs>
<linearGradient id="paint0_linear_422_15181" x1="104.614" y1="46.6484" x2="33.2548" y2="59.4089" gradientUnits="userSpaceOnUse">
<stop stop-color="#A064B0"/>
<stop offset="0.12" stop-color="#8770B5"/>
<stop offset="0.37" stop-color="#488FC3"/>
<stop offset="0.51" stop-color="#23A2CC"/>
<stop offset="0.57" stop-color="#3EABCA"/>
<stop offset="0.65" stop-color="#58B5C9"/>
<stop offset="0.73" stop-color="#68BBC8"/>
<stop offset="0.78" stop-color="#6EBDC8"/>
<stop offset="0.84" stop-color="#70B9C9"/>
<stop offset="0.9" stop-color="#77ADCD"/>
<stop offset="0.96" stop-color="#8399D3"/>
<stop offset="1" stop-color="#8F85DA"/>
</linearGradient>
</defs>
</svg>
