<?xml version="1.0" encoding="UTF-8"?>
<svg id="_圖層_2" data-name="圖層 2" xmlns="http://www.w3.org/2000/svg" viewBox="0 0 284.76 250.26">
  <defs>
    <style>
      .cls-1 {
        fill-rule: evenodd;
      }

      .cls-1, .cls-2 {
        stroke-width: 0px;
      }

      .cls-3 {
        fill: #ea2a2a;
        stroke: #000;
        stroke-miterlimit: 10;
        stroke-width: 5px;
      }
    </style>
  </defs>
  <g id="_連接斷線" data-name="連接斷線">
    <path class="cls-3" d="m280.74,230.91L152.11,8.12c-4.32-7.49-15.14-7.49-19.46,0L4.02,230.91c-4.32,7.49,1.08,16.85,9.73,16.85h257.25c8.65,0,14.06-9.36,9.73-16.85Z"/>
    <rect class="cls-2" x="99.2" y="202.28" width="86.87" height="6.95" rx="1.44" ry="1.44"/>
    <g>
      <path class="cls-1" d="m76.03,216.91c6.18,0,11.19-5,11.19-11.16s-5.01-11.16-11.19-11.16-11.19,5-11.19,11.16,5.01,11.16,11.19,11.16Zm0-4.78c3.53,0,6.39-2.86,6.39-6.38s-2.86-6.38-6.39-6.38-6.39,2.86-6.39,6.38,2.86,6.38,6.39,6.38Z"/>
      <path class="cls-2" d="m77.04,186.71c-.53,0-.98-.38-1.07-.9l-1.38-7.77c-.09-.52-.54-.9-1.07-.9h-17.36c-.53,0-.98.38-1.07.9l-1.38,7.77c-.09.52-.54.9-1.07.9h-3.51c-.6,0-1.08.49-1.08,1.08v36.09c0,.6.49,1.08,1.08,1.08h53.76c.6,0,1.08-.49,1.08-1.08v-36.13c0-.58-.47-1.05-1.05-1.05h-25.91Zm22.17,15.8v16.6c0,.6-.49,1.08-1.08,1.08h-44.17c-.6,0-1.08-.49-1.08-1.08v-26.72s-.13-.91,1.13-.91c.87,0,2.03-.03,2.63-.03,1.12,0,1.26-1.63,1.26-1.63l1.24-6.99c.09-.52.54-.9,1.07-.9h9.31c.53,0,.98.38,1.07.9l1.37,7.72c.1.55.57.95,1.13.95h25.05c.6,0,1.08.49,1.08,1.08v9.93Z"/>
    </g>
    <g>
      <rect class="cls-2" x="196.14" y="220.1" width="29.35" height="5" rx="1.28" ry="1.28"/>
      <path class="cls-1" d="m181.71,179.37v34.7c0,1.3,1.05,2.35,2.35,2.35h53.52c1.3,0,2.35-1.05,2.35-2.35v-34.7c0-1.3-1.05-2.35-2.35-2.35h-53.52c-1.3,0-2.35,1.05-2.35,2.35Zm52.27,32.12h-46.32c-.87,0-1.58-.71-1.58-1.58v-26.39c0-.87.71-1.58,1.58-1.58h46.32c.87,0,1.58.71,1.58,1.58v26.39c0,.87-.71,1.58-1.58,1.58Z"/>
    </g>
    <path class="cls-3" d="m157.38,186.12l-13.17,13.17c-.75.75-1.96.75-2.71,0l-13.17-13.17c-.83-.83-2.17-.83-3,0l-2.12,2.12c-.83.83-.83,2.17,0,3l13.17,13.17c.75.75.75,1.96,0,2.71l-13.17,13.17c-.83.83-.83,2.17,0,3l2.11,2.11c.83.83,2.17.83,3,0l13.17-13.17c.75-.75,1.96-.75,2.71,0l13.17,13.17c.83.83,2.17.83,3,0l2.11-2.11c.83-.83.83-2.17,0-3l-13.17-13.17c-.75-.75-.75-1.96,0-2.71l13.17-13.17c.83-.83.83-2.17,0-3l-2.11-2.11c-.83-.83-2.17-.83-3,0Z"/>
  </g>
</svg>